<?xml version="1.0"?>
<svg xmlns="http://www.w3.org/2000/svg" xmlns:xlink="http://www.w3.org/1999/xlink" version="1.1" id="Capa_1" x="0px" y="0px" viewBox="0 0 211.079 211.079" style="enable-background:new 0 0 211.079 211.079;" xml:space="preserve" width="512px" height="512px" class=""><g><path d="M105.472,211.079c-8.613,0-16.86-1.61-24.451-4.543c-0.171-0.047-0.335-0.111-0.489-0.191  c-25.208-9.969-43.088-34.583-43.088-63.293v-0.988h-1.487c-11.568,0-20.979-9.411-20.979-20.979v-9.606  c0-11.568,9.411-20.979,20.979-20.979h1.487V59.581c0-11.853,5.485-23.12,14.753-30.465c-0.332-1.606-0.506-3.262-0.506-4.943  c0-4.319,2.3-8.756,6.152-11.868c0.039-0.031,0.078-0.061,0.119-0.09l2.334-1.666c0.083-0.059,0.169-0.113,0.259-0.162  c0.364-0.198,0.776-0.446,1.249-0.729c2.198-1.319,5.521-3.312,11.014-4.987l0,0C80.42,2.18,88.406,0.728,97.234,0.233  c33.802-1.897,63.835,7.951,73.095,23.951c1.236,1.867,2.239,3.639,3.064,5.413c7.617,16.383,1.424,33.58,0.106,36.859v24.042h1.624  c11.567,0,20.979,9.411,20.979,20.979v9.606c0,11.568-9.411,20.979-20.979,20.979h-1.624v0.988c0,27.911-16.897,51.95-40.999,62.426  c-0.444,0.689-1.22,1.146-2.102,1.146c-0.188,0-0.372-0.021-0.548-0.06C122.279,209.48,114.06,211.079,105.472,211.079z   M84.181,202.378c6.654,2.395,13.821,3.7,21.29,3.7c7.896,0,15.457-1.459,22.428-4.122v-81.2  c-7.213-1.196-12.731-7.479-12.731-15.026c0-8.398,6.833-15.231,15.231-15.231s15.231,6.833,15.231,15.231  c0,7.547-5.519,13.83-12.731,15.026v79.036c21.051-10.217,35.601-31.813,35.601-56.741V121.86h-4.43  c-0.668,0-1.309-0.267-1.777-0.742c-0.47-0.475-0.73-1.118-0.723-1.786c0.004-0.29,0.304-29.082-1.926-37.997  c-2.013-8.055-7.762-11.271-8.006-11.405c-0.596-0.325-1.04-0.882-1.22-1.536c-0.18-0.655-0.092-1.358,0.254-1.941  c0.033-0.055,3.432-5.876,3.581-11.458c0.023-0.883-3.675-3.055-8.524-4.4c-5.31-1.105-9.356-1.035-9.459-1.034  c-0.021,0-0.042,0.001-0.063,0.001h-52c-7.52,0-14.018-1.292-19.313-3.841c-0.886-0.426-1.739-0.908-2.555-1.44  c-2.335,2.7-5.657,7.304-5.648,10.775c0.014,5.563,3.521,11.301,3.557,11.358c0.363,0.588,0.467,1.301,0.286,1.969  c-0.182,0.667-0.631,1.23-1.242,1.554c-0.23,0.126-5.979,3.343-7.992,11.398c-2.23,8.917-1.93,37.707-1.926,37.997  c0.008,0.668-0.253,1.311-0.723,1.786c-0.469,0.475-1.109,0.742-1.777,0.742h-4.43v21.191c0,25.375,15.073,47.297,36.737,57.279  v-79.574c-7.213-1.196-12.731-7.479-12.731-15.026c0-8.398,6.833-15.231,15.231-15.231s15.231,6.833,15.231,15.231  c0,7.547-5.519,13.83-12.731,15.026V202.378z M173.636,137.063h1.487c8.811,0,15.979-7.168,15.979-15.979v-9.606  c0-8.811-7.168-15.979-15.979-15.979h-1.487V137.063z M35.956,95.499c-8.812,0-15.979,7.168-15.979,15.979v9.606  c0,8.811,7.168,15.979,15.979,15.979h1.487V95.499H35.956z M166.586,116.86h1.913V66.595c-2.177-4.749-5.541-8.176-9.287-10.647  c-0.299,4.373-1.99,8.562-3.146,10.971c2.525,1.973,6.663,6.138,8.43,13.204C166.494,88.119,166.609,109.462,166.586,116.86z   M42.444,116.86h1.913c-0.022-7.398,0.092-28.741,2.091-36.738c1.761-7.043,5.877-11.204,8.404-13.184  c-1.272-2.577-3.149-7.171-3.161-11.87c-0.013-5.307,4.22-11.005,6.778-13.963c-1.924-1.964-3.501-4.274-4.648-6.826  c-7.177,6.392-11.377,15.623-11.377,25.302V116.86z M130.399,95.499c-5.642,0-10.231,4.59-10.231,10.231s4.59,10.231,10.231,10.231  s10.231-4.59,10.231-10.231S136.04,95.499,130.399,95.499z M81.681,95.499c-5.642,0-10.231,4.59-10.231,10.231  s4.59,10.231,10.231,10.231s10.231-4.59,10.231-10.231S87.322,95.499,81.681,95.499z M136.653,44.479  c3.392,0,23.563,0.639,33.742,15.312c0.354-1.348,0.71-2.915,1.002-4.647c-2.934-2.858-13.531-12.211-29.298-15.208  c-11.023-2.095-24.041-1.284-36.633-0.499c-9.361,0.584-19.042,1.188-27.616,0.536c-8.314-0.631-14.076-2.8-18.019-5.227  c1.809,2.758,4.322,5.016,7.344,6.451c4.591,2.182,10.318,3.288,17.021,3.288h52C136.261,44.482,136.415,44.479,136.653,44.479z   M125.358,33.601c6.125,0,12.095,0.361,17.675,1.422c13.856,2.634,23.881,9.605,29.016,13.95c0.089-2.201,0.025-4.529-0.272-6.915  c-6.97-6.976-19.329-11.841-35.824-14.089c-8.735-1.189-18.695,0.165-29.238,1.599c-10.626,1.445-21.613,2.941-31.5,1.64  c-10.966-1.443-15.991-5.392-18.281-8.933c-0.158,0.638-0.241,1.275-0.241,1.898c0,0.235,0.004,0.47,0.013,0.704  c0.813,1.573,5.431,8.886,21.525,10.109c8.229,0.625,17.313,0.06,26.926-0.541C111.87,34.027,118.705,33.601,125.358,33.601z   M128.721,22.521c2.713,0,5.358,0.146,7.906,0.493c13.972,1.904,25.27,5.678,33.214,11.041c-0.293-0.787-0.62-1.57-0.982-2.351  c-0.729-1.566-1.625-3.144-2.741-4.824c-0.031-0.047-0.061-0.095-0.089-0.144c-0.004-0.008-0.009-0.016-0.014-0.024  c-8.202-14.219-36.996-23.257-68.502-21.488c-8.4,0.472-15.981,1.848-23.176,4.209c-0.029,0.009-0.059,0.019-0.088,0.027  c-4.89,1.495-7.888,3.293-9.874,4.484c-0.482,0.29-0.91,0.545-1.294,0.758L60.93,16.24c-0.292,0.239-0.572,0.489-0.84,0.749  c0.314,1.97,2.399,7.501,15.775,9.262c9.222,1.214,19.873-0.235,30.173-1.637C113.631,23.58,121.414,22.521,128.721,22.521z   M120.498,165.088c-0.521,0-1.045-0.162-1.493-0.497l-0.714-0.532c-7.876-5.878-16.187-5.709-24.024,0.49  c-1.083,0.858-2.655,0.673-3.512-0.411c-0.856-1.083-0.673-2.655,0.41-3.511c9.671-7.647,20.366-7.849,30.117-0.575l0.713,0.533  c1.106,0.826,1.334,2.393,0.508,3.499C122.013,164.741,121.26,165.088,120.498,165.088z M130.399,108.48c-1.381,0-2.5-1.119-2.5-2.5  v-0.25c0-1.381,1.119-2.5,2.5-2.5s2.5,1.119,2.5,2.5v0.25C132.899,107.361,131.779,108.48,130.399,108.48z M81.681,108.48  c-1.381,0-2.5-1.119-2.5-2.5v-0.25c0-1.381,1.119-2.5,2.5-2.5s2.5,1.119,2.5,2.5v0.25C84.181,107.361,83.062,108.48,81.681,108.48z   M141.217,86.075c-0.432,0-0.868-0.111-1.266-0.346l-15.333-9.023c-1.19-0.701-1.587-2.233-0.887-3.423  c0.701-1.19,2.236-1.585,3.422-0.887l15.333,9.023c1.19,0.701,1.587,2.233,0.887,3.423  C142.907,85.634,142.073,86.075,141.217,86.075z M70.79,86.075c-0.856,0-1.69-0.441-2.156-1.232c-0.7-1.19-0.304-2.722,0.887-3.423  l15.333-9.023c1.187-0.697,2.722-0.303,3.422,0.887s0.304,2.722-0.887,3.423l-15.333,9.023  C71.658,85.963,71.222,86.075,70.79,86.075z" data-original="#000000" class="active-path" data-old_color="#C5B9B9" fill="#FDEFEF"/></g> </svg>
