<svg xmlns="http://www.w3.org/2000/svg" width="6722.52" height="4801.8" viewBox="0 0 2100 1500">
  <metadata><?xpacket begin="﻿" id="W5M0MpCehiHzreSzNTczkc9d"?>
<x:xmpmeta xmlns:x="adobe:ns:meta/" x:xmptk="Adobe XMP Core 5.6-c142 79.160924, 2017/07/13-01:06:39        ">
   <rdf:RDF xmlns:rdf="http://www.w3.org/1999/02/22-rdf-syntax-ns#">
      <rdf:Description rdf:about=""/>
   </rdf:RDF>
</x:xmpmeta>
                                                                                                    
                                                                                                    
                                                                                                    
                                                                                                    
                                                                                                    
                                                                                                    
                                                                                                    
                                                                                                    
                                                                                                    
                                                                                                    
                                                                                                    
                                                                                                    
                                                                                                    
                                                                                                    
                                                                                                    
                                                                                                    
                                                                                                    
                                                                                                    
                                                                                                    
                                                                                                    
                           
<?xpacket end="w"?></metadata>
<defs>
    <style>
      .cls-1 {
        fill: #fff;
        fill-rule: evenodd;
      }
    </style>
  </defs>
  <path class="cls-1" d="M647,318h52a8,8,0,0,1,8,8V919a8,8,0,0,1-8,8H647a8,8,0,0,1-8-8V326A8,8,0,0,1,647,318Zm626.47,0h48a10,10,0,0,1,10,10V917a10,10,0,0,1-10,10h-48a10,10,0,0,1-10-10V328A10,10,0,0,1,1273.47,318Zm-283.611,0a38.641,38.641,0,1,1-38.64,38.641A38.641,38.641,0,0,1,989.859,318ZM964.313,475.656h48.027a10,10,0,0,1,10,10V886.094a10,10,0,0,1-10,10H964.313a10,10,0,0,1-10-10V485.656A10,10,0,0,1,964.313,475.656ZM673,865.188h621.38V927H673V865.188Z"/>
</svg>
