<?xml version="1.0" encoding="iso-8859-1"?>
<!-- Generator: Adobe Illustrator 19.0.0, SVG Export Plug-In . SVG Version: 6.00 Build 0)  -->
<svg version="1.1" id="Layer_1" xmlns="http://www.w3.org/2000/svg" xmlns:xlink="http://www.w3.org/1999/xlink" x="0px" y="0px"
	 viewBox="0 0 496 496" style="enable-background:new 0 0 496 496;" xml:space="preserve">
<g>
	<g>
		<g>
			<path d="M463.96,317.432C462.6,270.088,423.664,232,376,232c-33.72,0-63.928,18.928-78.744,48.776
				c-3.064-0.52-6.152-0.776-9.256-0.776c-21.76,0-41.408,12.664-50.576,32.056C207.736,313.408,184,337.984,184,368
				c0,30.88,25.128,56,56,56h200c30.872,0,56-25.12,56-56C496,346.256,483.344,326.616,463.96,317.432z M440,408H240
				c-22.056,0-40-17.944-40-40c0-22.056,17.944-40,40-40c0.496,0,0.976,0.04,1.464,0.072l6.832,0.416l1.992-5.704
				C255.904,306.768,271.064,296,288,296c3.896,0,7.784,0.576,11.536,1.712l6.992,2.104l2.736-6.768
				C320.336,265.68,346.52,248,376,248c39.704,0,72,32.304,72,72l-0.336,8.344l5.544,1.944C469.232,335.904,480,351.064,480,368
				C480,390.056,462.056,408,440,408z"/>
			<path d="M312,208c0-21.744-12.656-41.384-32.04-50.568C278.6,110.088,239.664,72,192,72c-33.72,0-63.928,18.928-78.744,48.776
				c-3.064-0.52-6.152-0.776-9.256-0.776c-21.76,0-41.408,12.664-50.576,32.056C23.736,153.408,0,177.984,0,208
				c0,30.88,25.128,56,56,56h200C286.872,264,312,238.88,312,208z M16,208c0-22.056,17.944-40,40-40c0.496,0,0.976,0.04,1.464,0.072
				l6.832,0.416l1.992-5.704C71.904,146.768,87.064,136,104,136c3.896,0,7.784,0.576,11.536,1.712l6.992,2.104l2.736-6.768
				C136.336,105.68,162.52,88,192,88c39.704,0,72,32.304,72,72l-0.336,8.344l5.544,1.944C285.232,175.904,296,191.064,296,208
				c0,22.056-17.944,40-40,40H56C33.944,248,16,230.056,16,208z"/>
		</g>
	</g>
</g>
<g>
</g>
<g>
</g>
<g>
</g>
<g>
</g>
<g>
</g>
<g>
</g>
<g>
</g>
<g>
</g>
<g>
</g>
<g>
</g>
<g>
</g>
<g>
</g>
<g>
</g>
<g>
</g>
<g>
</g>
</svg>
