<?xml version="1.0"?>
<svg xmlns="http://www.w3.org/2000/svg" xmlns:xlink="http://www.w3.org/1999/xlink" version="1.1" id="Layer_1" x="0px" y="0px" viewBox="0 0 496 496" style="enable-background:new 0 0 496 496;" xml:space="preserve" width="512px" height="512px" class=""><g><g>
	<g>
		<path d="M413.968,209.096C402.968,144.184,346.464,96,280,96c-60.16,0-112.6,39.232-129.944,96.272    C148.008,192.088,145.984,192,144,192c-24.032,0-46.56,12.184-59.856,32.08C37.4,226.112,0,264.768,0,312c0,48.52,39.48,88,88,88    h312c52.936,0,96-43.064,96-96C496,256.424,460.464,215.928,413.968,209.096z M400,384H88c-39.704,0-72-32.304-72-72    s32.296-72,71.688-72.008l5.536,0.04l2.304-3.992C105.536,218.744,124.12,208,144,208c3.352,0,6.856,0.336,10.424,1.008l7.424,1.4    l1.824-7.336C176.96,149.448,224.8,112,280,112c60.512,0,111.672,45.28,119.008,105.32l0.56,4.592    C399.84,225.24,400,228.6,400,232c0,66.168-53.832,120-120,120v16c74.992,0,136-61.008,136-136c0-2.12-0.176-4.2-0.272-6.296    C452.432,233.088,480,265.768,480,304C480,348.112,444.112,384,400,384z" data-original="#000000" class="active-path" data-old_color="#FCFBFB" fill="#FDFCFC"/>
	</g>
</g></g> </svg>
