<?xml version="1.0" encoding="iso-8859-1"?>
<!-- Generator: Adobe Illustrator 19.0.0, SVG Export Plug-In . SVG Version: 6.00 Build 0)  -->
<svg version="1.1" id="Layer_1" xmlns="http://www.w3.org/2000/svg" xmlns:xlink="http://www.w3.org/1999/xlink" x="0px" y="0px"
	 viewBox="0 0 496 496" style="enable-background:new 0 0 496 496;" xml:space="preserve">
<g>
	<g>
		<path d="M413.968,233.096c-10.832-63.92-65.816-111.512-130.944-112.96C265.88,90.336,234.536,72,200,72
			c-40.936,0-77.168,26.096-90.52,64.288c-20.696-2.144-40.208,7.464-51.624,24.056C25.08,163.424,0,190.6,0,224
			c0,20.104,9.424,38.616,25.04,50.616C9.568,290.488,0,312.136,0,336c0,48.52,39.48,88,88,88h312c52.936,0,96-43.064,96-96
			C496,280.424,460.464,239.928,413.968,233.096z M16,224c0-26.144,20.496-47.192,46.648-47.928l4.472-0.128l2.232-3.872
			c8.648-14.984,25.728-23.24,43.864-18.96l7.56,1.792l2-7.512C132.104,112.424,163.848,88,200,88
			c25.88,0,49.584,12.416,64.496,32.984c-53.496,6.096-98.608,43.224-114.44,95.288C148.008,216.088,145.984,216,144,216
			c-24.032,0-46.56,12.184-59.856,32.08c-17.272,0.752-33.248,6.528-46.552,15.864C24.2,255.096,16,240.24,16,224z M400,408H88
			c-39.704,0-72-32.296-72-72c0-39.704,32.296-72,71.688-72.008l5.536,0.04l2.304-3.992C105.536,242.744,124.12,232,144,232
			c3.352,0,6.856,0.336,10.424,1.008l7.424,1.4l1.824-7.336C176.96,173.448,224.8,136,280,136
			c60.512,0,111.672,45.28,119.008,105.32l0.56,4.592C399.84,249.24,400,252.6,400,256c0,66.168-53.832,120-120,120v16
			c74.992,0,136-61.008,136-136c0-2.12-0.176-4.2-0.272-6.296C452.432,257.088,480,289.776,480,328C480,372.112,444.112,408,400,408
			z"/>
	</g>
</g>
<g>
</g>
<g>
</g>
<g>
</g>
<g>
</g>
<g>
</g>
<g>
</g>
<g>
</g>
<g>
</g>
<g>
</g>
<g>
</g>
<g>
</g>
<g>
</g>
<g>
</g>
<g>
</g>
<g>
</g>
</svg>
