<?xml version="1.0" encoding="iso-8859-1"?>
<!-- Generator: Adobe Illustrator 19.0.0, SVG Export Plug-In . SVG Version: 6.00 Build 0)  -->
<svg version="1.1" id="Layer_1" xmlns="http://www.w3.org/2000/svg" xmlns:xlink="http://www.w3.org/1999/xlink" x="0px" y="0px"
	 viewBox="0 0 496 496" style="enable-background:new 0 0 496 496;" xml:space="preserve">
<g>
	<g>
		<g>
			<path d="M413.968,153.1C402.968,88.188,346.464,40.004,280,40.004c-60.16,0-112.592,39.232-129.944,96.272
				c-2.048-0.176-4.072-0.272-6.056-0.272c-24.032,0-46.552,12.176-59.856,32.088C37.4,170.116,0,208.78,0,256.004
				c0,48.52,39.48,88,88,88h40.4c0.12,1.88,0.136,3.744,0.344,5.632c6.096,55.104,50.512,99.52,105.624,105.616
				c4.528,0.504,9.024,0.744,13.488,0.744c58.568,0,109.36-42.232,118.656-101.112c0.584-3.704,0.184-7.408-0.968-10.88H400
				c52.936,0,96-43.064,96-96C496,200.436,460.464,159.932,413.968,153.1z M350.72,352.388c-8.68,54.896-59.08,93.144-114.584,86.96
				c-47.736-5.272-86.2-43.744-91.48-91.472c-6.144-55.584,32.064-105.912,86.96-114.592c0.408-0.064,0.8-0.096,1.168-0.096
				c2.248,0,3.848,1.056,4.672,1.752c0.952,0.816,2.544,2.608,2.544,5.68c0,1.944-0.984,3.672-1.808,4.784
				c-12.472,16.768-16.928,37.36-12.56,57.984c5.744,27.144,27.84,49.24,54.984,54.984c20.616,4.368,41.216-0.096,57.984-12.56
				c1.112-0.824,2.84-1.808,4.96-1.808c2.888,0,4.688,1.592,5.504,2.536C349.872,347.5,351.168,349.516,350.72,352.388z
				 M400,328.004h-56v0.264c-5.112-0.112-10.376,1.304-14.944,4.696c-13.024,9.696-29.048,13.168-45.128,9.752
				c-21.056-4.456-38.184-21.584-42.64-42.64c-3.408-16.072,0.056-32.096,9.752-45.128c3.24-4.368,4.96-9.328,4.96-14.504
				c0-6.8-2.968-13.24-8.152-17.664c-5.184-4.424-12.032-6.36-18.736-5.288c-56.112,8.864-97.04,55.44-100.752,110.512H88
				c-39.704,0-72-32.296-72-72c0-39.704,32.296-72,71.688-72.008l5.528,0.04l2.312-3.992c10.016-17.296,28.592-28.04,48.472-28.04
				c3.352,0,6.856,0.344,10.424,1.008l7.424,1.4l1.824-7.336C176.96,93.46,224.808,56.004,280,56.004
				c60.512,0,111.672,45.28,119.008,105.32l0.792,6.496l6.52,0.512c41.312,3.232,73.68,38.232,73.68,79.672
				C480,292.116,444.112,328.004,400,328.004z"/>
			<rect x="280" y="224.004" width="16" height="16"/>
			<rect x="296" y="208.004" width="16" height="16"/>
			<rect x="312" y="224.004" width="16" height="16"/>
			<rect x="296" y="240.004" width="16" height="16"/>
			<rect x="328" y="272.004" width="16" height="16"/>
			<rect x="344" y="256.004" width="16" height="16"/>
			<rect x="360" y="272.004" width="16" height="16"/>
			<rect x="344" y="288.004" width="16" height="16"/>
		</g>
	</g>
</g>
<g>
</g>
<g>
</g>
<g>
</g>
<g>
</g>
<g>
</g>
<g>
</g>
<g>
</g>
<g>
</g>
<g>
</g>
<g>
</g>
<g>
</g>
<g>
</g>
<g>
</g>
<g>
</g>
<g>
</g>
</svg>
