<?xml version="1.0" encoding="iso-8859-1"?>
<!-- Generator: Adobe Illustrator 19.0.0, SVG Export Plug-In . SVG Version: 6.00 Build 0)  -->
<svg version="1.1" id="Layer_1" xmlns="http://www.w3.org/2000/svg" xmlns:xlink="http://www.w3.org/1999/xlink" x="0px" y="0px"
	 viewBox="0 0 496 496" style="enable-background:new 0 0 496 496;" xml:space="preserve">
<g>
	<g>
		<g>
			<path d="M495.81,243.056C495.482,232.368,486.858,224,476.17,224c-6.944,0-13.264,3.648-16.896,9.744
				c-30.392,50.92-88.136,77.776-147.152,68.36c-70.264-11.176-120.6-71.832-119.68-144.224
				c0.712-56.336,29.032-102.016,77.68-125.336c5.976-2.864,9.688-8.688,9.688-15.2c0-8.896-7-16.296-15.936-16.848
				C258.666,0.176,253.546,0,248.434,0C180.018,0,113.93,28.664,67.098,78.64C19.73,129.2-3.862,195.232,0.658,264.576
				C8.778,388.904,108.61,488.2,232.89,495.552c5.104,0.304,10.184,0.448,15.256,0.448c63.512,0,123.336-23.656,169.824-67.472
				c50.24-47.36,77.92-111.472,77.92-180.528C495.89,246.352,495.858,244.696,495.81,243.056z M406.986,416.888
				c-46.952,44.256-108.472,66.488-173.152,62.688c-116.24-6.88-209.616-99.76-217.208-216.04
				c-4.232-64.88,17.832-126.664,62.144-173.96C122.586,42.824,184.426,16,248.434,16c4.784,0,9.576,0.168,14.448,0.472
				c0.528,0.032,0.928,0.408,0.928,0.872c0,0.36-0.312,0.64-0.6,0.776c-53.544,25.664-85.976,77.832-86.76,139.56
				c-1.016,80.4,54.984,147.792,133.168,160.232c65.496,10.424,129.632-19.4,163.408-75.976v-0.008c1.848-3.096,6.704-1.592,6.8,1.6
				c0.04,1.488,0.072,2.976,0.072,4.464C479.89,312.6,453.994,372.584,406.986,416.888z"/>
			<rect x="335.81" width="16" height="24"/>
			<rect x="351.81" y="24" width="24" height="16"/>
			<rect x="335.81" y="40" width="16" height="24"/>
			<rect x="311.81" y="24" width="24" height="16"/>
			<rect x="399.81" y="112" width="16" height="24"/>
			<rect x="415.81" y="136" width="24" height="16"/>
			<rect x="399.81" y="152" width="16" height="24"/>
			<rect x="375.81" y="136" width="24" height="16"/>
			<rect x="287.81" y="104" width="16" height="16"/>
			<rect x="303.81" y="120" width="16" height="16"/>
			<rect x="287.81" y="136" width="16" height="16"/>
			<rect x="271.81" y="120" width="16" height="16"/>
		</g>
	</g>
</g>
<g>
</g>
<g>
</g>
<g>
</g>
<g>
</g>
<g>
</g>
<g>
</g>
<g>
</g>
<g>
</g>
<g>
</g>
<g>
</g>
<g>
</g>
<g>
</g>
<g>
</g>
<g>
</g>
<g>
</g>
</svg>
