<?xml version="1.0" encoding="iso-8859-1"?>
<!-- Generator: Adobe Illustrator 19.0.0, SVG Export Plug-In . SVG Version: 6.00 Build 0)  -->
<svg version="1.1" id="Layer_1" xmlns="http://www.w3.org/2000/svg" xmlns:xlink="http://www.w3.org/1999/xlink" x="0px" y="0px"
	 viewBox="0 0 496.001 496.001" style="enable-background:new 0 0 496.001 496.001;" xml:space="preserve">
<g>
	<g>
		<g>
			<path d="M413.977,257.106c-11.008-64.912-67.52-113.096-133.976-113.096c-48.832,0-92.584,25.856-116.6,66.104
				c-19.352-13.088-32.224-33.736-34.856-56.712c-3.328-29.016,8.704-56.616,32.168-73.84c4.632-3.408,7.288-8.56,7.288-14.136
				c0-4.672-1.832-9.064-5.16-12.36c-3.328-3.312-7.848-5.288-12.432-5.056c-2.16,0.016-4.008,0.04-4.688,0.072
				c-41.216,1.672-79.136,19.528-106.776,50.28c-27.608,30.704-41.32,70.416-38.608,111.824c1.96,29.952,12.872,58.176,31.48,82.224
				c-19.408,16.152-31.816,40.432-31.816,67.6c0,48.52,39.48,88,88,88h312c52.936,0,96-43.064,96-96
				C496.001,304.442,460.465,263.938,413.977,257.106z M16.305,209.138c-2.432-37.064,9.832-72.608,34.528-100.08
				c24.736-27.504,58.664-43.488,95.544-44.992c0.616-0.024,2.264-0.04,4.176-0.056c0.008,0,0.008,0,0.016,0
				c0.488,0,0.816,0.224,1.008,0.416c0.192,0.192,0.424,0.52,0.424,1c0,0.632-0.592,1.12-0.76,1.24
				c-28.152,20.656-42.576,53.76-38.592,88.552c3.24,28.28,19.36,53.544,43.464,69.16c-2.296,5.144-4.384,10.408-6.056,15.896
				c-26.728-2.352-51.504,10.264-65.904,31.816c-14.176,0.616-27.464,4.64-39.136,11.208
				C28.025,261.634,18.073,236.162,16.305,209.138z M400.001,432.01h-312c-39.696,0-72-32.296-72-72
				c0-39.704,32.304-72,71.688-72.008l5.536,0.04l2.312-3.992c10.008-17.296,28.576-28.04,48.464-28.04
				c3.352,0,6.856,0.344,10.416,1.008l7.424,1.4l1.824-7.336c13.296-53.624,61.136-91.072,116.336-91.072
				c60.504,0,111.672,45.28,119.008,105.32l0.56,4.552c0.272,3.344,0.432,6.712,0.432,10.128c0,66.168-53.832,120-120,120v16
				c74.992,0,136-61.008,136-136c0-2.128-0.176-4.2-0.272-6.296c36.704,7.384,64.272,40.064,64.272,78.296
				C480.001,396.122,444.113,432.01,400.001,432.01z"/>
			<rect x="216.001" y="48.01" width="16" height="16"/>
			<rect x="232.001" y="64.01" width="16" height="16"/>
			<rect x="216.001" y="80.01" width="16" height="16"/>
			<rect x="200.001" y="64.01" width="16" height="16"/>
			<rect x="184.001" y="112.01" width="16" height="16"/>
			<rect x="200.001" y="128.01" width="16" height="16"/>
			<rect x="184.001" y="144.01" width="16" height="16"/>
			<rect x="168.001" y="128.01" width="16" height="16"/>
		</g>
	</g>
</g>
<g>
</g>
<g>
</g>
<g>
</g>
<g>
</g>
<g>
</g>
<g>
</g>
<g>
</g>
<g>
</g>
<g>
</g>
<g>
</g>
<g>
</g>
<g>
</g>
<g>
</g>
<g>
</g>
<g>
</g>
</svg>
