<?xml version="1.0" encoding="iso-8859-1"?>
<!-- Generator: Adobe Illustrator 19.0.0, SVG Export Plug-In . SVG Version: 6.00 Build 0)  -->
<svg version="1.1" id="Layer_1" xmlns="http://www.w3.org/2000/svg" xmlns:xlink="http://www.w3.org/1999/xlink" x="0px" y="0px"
	 viewBox="0 0 496 496" style="enable-background:new 0 0 496 496;" xml:space="preserve">
<g>
	<g>
		<g>
			<path d="M413.976,177.096c-10.832-63.912-65.816-111.512-130.944-112.96C265.888,34.344,234.528,16,200,16
				c-40.936,0-77.176,26.096-90.528,64.28c-20.752-2.12-40.216,7.472-51.624,24.064C25.08,107.424,0,134.592,0,168
				c0,20.104,9.424,38.616,25.04,50.616C9.568,234.48,0,256.136,0,280c0,48.52,39.48,88,88,88h312c52.936,0,96-43.064,96-96
				C496,224.432,460.464,183.928,413.976,177.096z M16,168c0-26.144,20.496-47.192,46.648-47.92l4.472-0.128l2.232-3.872
				C76.504,103.696,89.776,96,104,96c3.016,0,6.032,0.368,9.224,1.12l7.56,1.776l2-7.504C132.104,56.424,163.848,32,200,32
				c25.88,0,49.584,12.416,64.488,32.984c-53.496,6.096-98.6,43.224-114.44,95.288c-26.728-2.352-51.504,10.272-65.904,31.816
				c-17.272,0.744-33.248,6.52-46.56,15.856C24.192,199.096,16,184.24,16,168z M400,352H88c-39.696,0-72-32.296-72-72
				c0-39.704,32.304-72,71.688-72.008l5.536,0.04l2.312-3.992C105.544,186.744,124.112,176,144,176
				c3.352,0,6.856,0.344,10.416,1.008l7.424,1.4l1.824-7.336C176.96,117.456,224.8,80,280,80c60.504,0,111.672,45.28,119.008,105.32
				l0.56,4.552C399.84,193.216,400,196.584,400,200c0,66.168-53.832,120-120,120v16c74.992,0,136-61.008,136-136
				c0-2.128-0.176-4.2-0.272-6.296C452.432,201.088,480,233.768,480,272C480,316.112,444.112,352,400,352z"/>
			<path d="M128,384.456l-27.44,45.736c-2.984,4.976-4.56,10.656-4.56,16.456V448c0,17.648,14.352,32,32,32s32-14.352,32-32v-1.352
				c0-5.8-1.576-11.488-4.56-16.472L128,384.456z M144,448c0,8.824-7.176,16-16,16c-8.824,0-16-7.176-16-16v-1.352
				c0-2.896,0.792-5.752,2.28-8.232L128,415.544l13.712,22.856c1.496,2.496,2.288,5.352,2.288,8.248V448z"/>
			<path d="M208,384.456l-27.44,45.736c-2.984,4.976-4.56,10.656-4.56,16.456V448c0,17.648,14.352,32,32,32s32-14.352,32-32v-1.352
				c0-5.8-1.576-11.488-4.56-16.472L208,384.456z M224,448c0,8.824-7.176,16-16,16c-8.824,0-16-7.176-16-16v-1.352
				c0-2.896,0.792-5.752,2.28-8.232L208,415.544l13.712,22.856c1.496,2.496,2.288,5.352,2.288,8.248V448z"/>
			<path d="M288,384.456l-27.44,45.736c-2.984,4.976-4.56,10.656-4.56,16.456V448c0,17.648,14.352,32,32,32s32-14.352,32-32v-1.352
				c0-5.8-1.576-11.488-4.56-16.472L288,384.456z M304,448c0,8.824-7.176,16-16,16c-8.824,0-16-7.176-16-16v-1.352
				c0-2.896,0.792-5.752,2.28-8.232L288,415.544l13.712,22.856c1.496,2.496,2.288,5.352,2.288,8.248V448z"/>
			<path d="M368,384.456l-27.44,45.736c-2.984,4.976-4.56,10.656-4.56,16.456V448c0,17.648,14.352,32,32,32s32-14.352,32-32v-1.352
				c0-5.8-1.576-11.488-4.56-16.472L368,384.456z M384,448c0,8.824-7.176,16-16,16c-8.824,0-16-7.176-16-16v-1.352
				c0-2.896,0.792-5.752,2.28-8.232L368,415.544l13.712,22.856c1.496,2.496,2.288,5.352,2.288,8.248V448z"/>
		</g>
	</g>
</g>
<g>
</g>
<g>
</g>
<g>
</g>
<g>
</g>
<g>
</g>
<g>
</g>
<g>
</g>
<g>
</g>
<g>
</g>
<g>
</g>
<g>
</g>
<g>
</g>
<g>
</g>
<g>
</g>
<g>
</g>
</svg>
