<?xml version="1.0" encoding="iso-8859-1"?>
<!-- Generator: Adobe Illustrator 19.0.0, SVG Export Plug-In . SVG Version: 6.00 Build 0)  -->
<svg version="1.1" id="Layer_1" xmlns="http://www.w3.org/2000/svg" xmlns:xlink="http://www.w3.org/1999/xlink" x="0px" y="0px"
	 viewBox="0 0 496 496" style="enable-background:new 0 0 496 496;" xml:space="preserve">
<g>
	<g>
		<g>
			<path d="M256,152.408V120h-16v32.408C151.088,156.624,80,230.064,80,320v16h16c0-17.648,14.352-32,32-32s32,14.352,32,32h16
				c0-17.648,14.352-32,32-32s32,14.352,32,32v128c0,17.648,14.352,32,32,32s32-14.352,32-32v-16h-16v16c0,8.824-7.176,16-16,16
				c-8.824,0-16-7.176-16-16V336c0-17.648,14.352-32,32-32s32,14.352,32,32h16c0-17.648,14.352-32,32-32s32,14.352,32,32h16v-16
				C416,230.064,344.912,156.624,256,152.408z M160.464,300.664C151.912,292.808,140.504,288,128,288
				c-11.6,0-22.248,4.136-30.552,11.008c9.104-65.616,60.28-117.872,125.304-128.808
				C186.248,204.016,163.792,250.696,160.464,300.664z M288,288c-16.672,0-31.392,8.544-40,21.496
				C239.392,296.544,224.672,288,208,288c-12.016,0-22.968,4.48-31.4,11.808c3.984-51.376,29.952-98.792,71.4-129.824
				c41.448,31.032,67.416,78.448,71.4,129.824C310.968,292.488,300.016,288,288,288z M368,288c-12.504,0-23.912,4.808-32.464,12.672
				c-3.328-49.968-25.784-96.648-62.288-130.464c65.024,10.928,116.2,63.192,125.304,128.808C390.248,292.136,379.6,288,368,288z"/>
			<rect x="384" width="16" height="32"/>
			<rect x="288" width="16" height="32"/>
			<rect x="192" width="16" height="32"/>
			<rect x="384" y="96" width="16" height="32"/>
			<rect x="384" y="48" width="16" height="32"/>
			<rect x="336" y="72" width="16" height="32"/>
			<rect x="384" y="144" width="16" height="32"/>
			<rect x="336" y="120" width="16" height="32"/>
			<rect x="336" y="24" width="16" height="32"/>
			<rect x="288" y="96" width="16" height="32"/>
			<rect x="288" y="48" width="16" height="32"/>
			<rect x="240" y="72" width="16" height="32"/>
			<rect x="240" y="24" width="16" height="32"/>
			<rect x="192" y="96" width="16" height="32"/>
			<rect x="192" y="48" width="16" height="32"/>
			<rect x="144" y="72" width="16" height="32"/>
			<rect x="144" y="120" width="16" height="32"/>
			<rect x="144" y="24" width="16" height="32"/>
			<rect x="96" y="48" width="16" height="32"/>
			<rect x="96" y="96" width="16" height="32"/>
			<rect x="96" y="144" width="16" height="32"/>
			<rect x="96" width="16" height="32"/>
		</g>
	</g>
</g>
<g>
</g>
<g>
</g>
<g>
</g>
<g>
</g>
<g>
</g>
<g>
</g>
<g>
</g>
<g>
</g>
<g>
</g>
<g>
</g>
<g>
</g>
<g>
</g>
<g>
</g>
<g>
</g>
<g>
</g>
</svg>
