<?xml version="1.0" encoding="iso-8859-1"?>
<!-- Generator: Adobe Illustrator 19.0.0, SVG Export Plug-In . SVG Version: 6.00 Build 0)  -->
<svg version="1.1" id="Layer_1" xmlns="http://www.w3.org/2000/svg" xmlns:xlink="http://www.w3.org/1999/xlink" x="0px" y="0px"
	 viewBox="0 0 496 496" style="enable-background:new 0 0 496 496;" xml:space="preserve">
<g>
	<g>
		<g>
			<path d="M413.976,113.096C402.968,48.184,346.456,0,280,0c-60.16,0-112.6,39.232-129.952,96.272
				c-26.736-2.336-51.512,10.264-65.912,31.816C37.4,130.112,0,168.768,0,216c0,48.52,39.48,88,88,88v-16c-39.696,0-72-32.304-72-72
				s32.304-72,71.688-72.008l5.536,0.04l2.312-3.992C105.544,122.744,124.112,112,144,112c3.352,0,6.856,0.336,10.416,1.008
				l7.424,1.4l1.824-7.336C176.96,53.448,224.8,16,280,16c60.504,0,111.672,45.28,119.008,105.32l0.56,4.552
				C399.84,129.216,400,132.592,400,136c0,66.168-53.832,120-120,120v16c74.992,0,136-61.008,136-136c0-2.12-0.176-4.2-0.272-6.296
				C452.432,137.088,480,169.768,480,208c0,44.112-35.888,80-80,80v16c52.936,0,96-43.064,96-96
				C496,160.424,460.464,119.928,413.976,113.096z"/>
			<rect x="352" y="368" width="16" height="32"/>
			<rect x="352" y="320" width="16" height="32"/>
			<rect x="352" y="272" width="16" height="32"/>
			<rect x="304" y="344" width="16" height="32"/>
			<rect x="304" y="296" width="16" height="32"/>
			<rect x="256" y="368" width="16" height="32"/>
			<rect x="256" y="320" width="16" height="32"/>
			<rect x="256" y="272" width="16" height="32"/>
			<rect x="208" y="344" width="16" height="32"/>
			<rect x="208" y="296" width="16" height="32"/>
			<rect x="160" y="368" width="16" height="32"/>
			<rect x="160" y="320" width="16" height="32"/>
			<rect x="160" y="272" width="16" height="32"/>
			<rect x="112" y="344" width="16" height="32"/>
			<rect x="112" y="296" width="16" height="32"/>
			<rect x="352" y="464" width="16" height="32"/>
			<rect x="352" y="416" width="16" height="32"/>
			<rect x="304" y="440" width="16" height="32"/>
			<rect x="304" y="392" width="16" height="32"/>
			<rect x="256" y="464" width="16" height="32"/>
			<rect x="256" y="416" width="16" height="32"/>
			<rect x="208" y="440" width="16" height="32"/>
			<rect x="208" y="392" width="16" height="32"/>
			<rect x="160" y="464" width="16" height="32"/>
			<rect x="160" y="416" width="16" height="32"/>
			<rect x="112" y="440" width="16" height="32"/>
			<rect x="112" y="392" width="16" height="32"/>
		</g>
	</g>
</g>
<g>
</g>
<g>
</g>
<g>
</g>
<g>
</g>
<g>
</g>
<g>
</g>
<g>
</g>
<g>
</g>
<g>
</g>
<g>
</g>
<g>
</g>
<g>
</g>
<g>
</g>
<g>
</g>
<g>
</g>
</svg>
