style="fill:white" <?xml version="1.0" encoding="iso-8859-1"?>
<!-- Generator: Adobe Illustrator 19.0.0, SVG Export Plug-In . SVG Version: 6.00 Build 0)  -->
<svg version="1.1" id="Layer_1" xmlns="http://www.w3.org/2000/svg" xmlns:xlink="http://www.w3.org/1999/xlink" x="0px" y="0px"
	 viewBox="0 0 496 496" style="enable-background:new 0 0 496 496;" xml:space="preserve">
<g>
	<g>
		<g>
			<path style="fill:white" d="M413.976,171.3C403.144,107.388,348.16,59.788,283.032,58.34C265.888,28.548,234.528,10.204,200,10.204
				c-40.936,0-77.176,26.096-90.528,64.28c-20.736-2.112-40.216,7.472-51.624,24.064C25.08,101.628,0,128.796,0,162.204
				c0,20.104,9.424,38.616,25.04,50.616C9.568,228.684,0,250.34,0,274.204c0,48.52,39.48,88,88,88v-16c-39.696,0-72-32.296-72-72
				c0-39.704,32.304-72,71.688-72.008l5.536,0.04l2.312-3.992c10.008-17.296,28.576-28.04,48.464-28.04
				c3.352,0,6.856,0.344,10.416,1.008l7.424,1.4l1.824-7.336C176.96,111.66,224.8,74.204,280,74.204
				c60.504,0,111.672,45.28,119.008,105.32l0.56,4.552c0.272,3.344,0.432,6.712,0.432,10.128c0,66.168-53.832,120-120,120v16
				c74.992,0,136-61.008,136-136c0-2.128-0.176-4.2-0.272-6.296C452.432,195.292,480,227.972,480,266.204c0,44.112-35.888,80-80,80
				v16c52.936,0,96-43.064,96-96C496,218.636,460.464,178.132,413.976,171.3z M150.048,154.476
				c-26.72-2.328-51.504,10.264-65.904,31.816c-17.272,0.744-33.248,6.52-46.56,15.856C24.192,193.3,16,178.444,16,162.204
				c0-26.144,20.496-47.192,46.648-47.92l4.472-0.128l2.232-3.872C76.504,97.9,89.776,90.204,104,90.204
				c3.016,0,6.032,0.368,9.224,1.12l7.56,1.776l2-7.504c9.32-34.968,41.064-59.392,77.216-59.392
				c25.88,0,49.584,12.416,64.488,32.984C211,65.284,165.888,102.412,150.048,154.476z"/>
			<rect style="fill:white" x="127.971" y="352.31" transform="matrix(0.8944 0.4472 -0.4472 0.8944 179.9121 -21.7254)" width="16" height="35.775"/>
			<rect style="fill:white" x="104.01" y="400.313" transform="matrix(-0.8944 -0.4472 0.4472 -0.8944 25.1691 842.3426)" width="16" height="35.775"/>

				<rect style="fill:white" x="79.968" y="448.332" transform="matrix(-0.8944 -0.4472 0.4472 -0.8944 -41.8492 922.5602)" width="16" height="35.775"/>

				<rect style="fill:white" x="183.975" y="352.303" transform="matrix(0.8944 0.4472 -0.4472 0.8944 185.8224 -46.7715)" width="15.999" height="35.775"/>

				<rect style="fill:white" x="160.013" y="400.315" transform="matrix(-0.8944 -0.4472 0.4472 -0.8944 131.2616 867.3909)" width="15.999" height="35.775"/>
			<rect style="fill:white" x="135.971" y="448.31" transform="matrix(-0.8944 -0.4472 0.4472 -0.8944 64.2532 947.5627)" width="16" height="35.775"/>
			<rect style="fill:white" x="239.986" y="352.321" transform="matrix(0.8944 0.4472 -0.4472 0.8944 191.7428 -71.8186)" width="16" height="35.775"/>

				<rect style="fill:white" x="215.984" y="400.348" transform="matrix(-0.8944 -0.4472 0.4472 -0.8944 237.2807 892.4858)" width="16" height="35.775"/>

				<rect style="fill:white" x="191.975" y="448.319" transform="matrix(-0.8944 -0.4472 0.4472 -0.8944 170.342 972.6262)" width="15.999" height="35.775"/>

				<rect style="fill:white" x="295.989" y="352.323" transform="matrix(0.8944 0.4472 -0.4472 0.8944 197.6567 -96.864)" width="15.999" height="35.775"/>

				<rect style="fill:white" x="271.987" y="400.342" transform="matrix(-0.8944 -0.4472 0.4472 -0.8944 343.3775 917.519)" width="16" height="35.775"/>

				<rect style="fill:white" x="247.986" y="448.313" transform="matrix(-0.8944 -0.4472 0.4472 -0.8944 276.4549 997.6631)" width="16" height="35.775"/>

				<rect style="fill:white" x="351.984" y="352.284" transform="matrix(-0.8944 -0.4472 0.4472 -0.8944 516.4177 862.2531)" width="16" height="35.775"/>

				<rect style="fill:white" x="327.983" y="400.319" transform="matrix(-0.8944 -0.4472 0.4472 -0.8944 449.4673 942.5182)" width="15.999" height="35.775"/>

				<rect style="fill:white" x="303.981" y="448.307" transform="matrix(-0.8944 -0.4472 0.4472 -0.8944 382.5356 1022.6929)" width="15.999" height="35.775"/>
		</g>
	</g>
</g>
<g>
</g>
<g>
</g>
<g>
</g>
<g>
</g>
<g>
</g>
<g>
</g>
<g>
</g>
<g>
</g>
<g>
</g>
<g>
</g>
<g>
</g>
<g>
</g>
<g>
</g>
<g>
</g>
<g>
</g>
</svg>
