<?xml version="1.0"?>
<svg xmlns="http://www.w3.org/2000/svg" xmlns:xlink="http://www.w3.org/1999/xlink" version="1.1" id="Layer_1" x="0px" y="0px" viewBox="0 0 496 496" style="enable-background:new 0 0 496 496;" xml:space="preserve" width="512px" height="512px" class=""><g><g>
	<g>
		<g>
			<path d="M413.976,123.293C402.968,58.381,346.456,10.197,280,10.197c-60.16,0-112.6,39.232-129.952,96.272     c-26.712-2.36-51.504,10.264-65.912,31.816C37.4,140.309,0,178.965,0,226.197c0,48.52,39.48,88,88,88v-16     c-39.696,0-72-32.304-72-72s32.304-72,71.688-72.008l5.536,0.04l2.312-3.992c10.008-17.296,28.576-28.04,48.464-28.04     c3.352,0,6.856,0.336,10.416,1.008l7.424,1.4l1.824-7.336C176.96,63.645,224.8,26.197,280,26.197     c60.504,0,111.672,45.28,119.008,105.32l0.56,4.552c0.272,3.344,0.432,6.72,0.432,10.128c0,66.168-53.832,120-120,120v16     c74.992,0,136-61.008,136-136c0-2.12-0.176-4.2-0.272-6.296C452.432,147.285,480,179.965,480,218.197c0,44.112-35.888,80-80,80     v16c52.936,0,96-43.064,96-96C496,170.621,460.464,130.125,413.976,123.293z" data-original="#000000" class="active-path" data-old_color="#F8F5F5" fill="#FDFAFA"/>
			<rect x="127.992" y="304.31" transform="matrix(0.8944 0.4472 -0.4472 0.8944 158.4469 -26.8023)" width="16" height="35.775" data-original="#000000" class="active-path" data-old_color="#F8F5F5" fill="#FDFAFA"/>
			
				<rect x="103.991" y="352.329" transform="matrix(-0.8944 -0.4472 0.4472 -0.8944 46.5918 751.4318)" width="16" height="35.775" data-original="#000000" class="active-path" data-old_color="#F8F5F5" fill="#FDFAFA"/>
			
				<rect x="79.989" y="400.3" transform="matrix(-0.8944 -0.4472 0.4472 -0.8944 -20.3315 831.5757)" width="15.999" height="35.775" data-original="#000000" class="active-path" data-old_color="#F8F5F5" fill="#FDFAFA"/>
			
				<rect x="55.987" y="448.303" transform="matrix(-0.8944 -0.4472 0.4472 -0.8944 -87.2679 911.7807)" width="16" height="35.775" data-original="#000000" class="active-path" data-old_color="#F8F5F5" fill="#FDFAFA"/>
			
				<rect x="183.987" y="304.271" transform="matrix(0.8944 0.4472 -0.4472 0.8944 164.3431 -51.8481)" width="15.999" height="35.775" data-original="#000000" class="active-path" data-old_color="#F8F5F5" fill="#FDFAFA"/>
			
				<rect x="159.986" y="352.307" transform="matrix(-0.8944 -0.4472 0.4472 -0.8944 152.6806 776.4312)" width="16" height="35.775" data-original="#000000" class="active-path" data-old_color="#F8F5F5" fill="#FDFAFA"/>
			
				<rect x="135.984" y="400.294" transform="matrix(-0.8944 -0.4472 0.4472 -0.8944 85.7524 856.6058)" width="16" height="35.775" data-original="#000000" class="active-path" data-old_color="#F8F5F5" fill="#FDFAFA"/>
			
				<rect x="111.983" y="448.305" transform="matrix(-0.8944 -0.4472 0.4472 -0.8944 18.8103 936.8255)" width="16" height="35.775" data-original="#000000" class="active-path" data-old_color="#F8F5F5" fill="#FDFAFA"/>
			<rect x="239.991" y="304.345" transform="matrix(0.8944 0.4472 -0.4472 0.8944 170.2878 -76.8857)" width="16" height="35.775" data-original="#000000" class="active-path" data-old_color="#F8F5F5" fill="#FDFAFA"/>
			
				<rect x="215.965" y="352.308" transform="matrix(-0.8944 -0.4472 0.4472 -0.8944 258.7284 801.4689)" width="16" height="35.775" data-original="#000000" class="active-path" data-old_color="#F8F5F5" fill="#FDFAFA"/>
			
				<rect x="192.003" y="400.287" transform="matrix(-0.8944 -0.4472 0.4472 -0.8944 191.8788 881.6461)" width="15.999" height="35.775" data-original="#000000" class="active-path" data-old_color="#F8F5F5" fill="#FDFAFA"/>
			
				<rect x="167.962" y="448.339" transform="matrix(-0.8944 -0.4472 0.4472 -0.8944 124.843 961.9237)" width="15.999" height="35.775" data-original="#000000" class="active-path" data-old_color="#F8F5F5" fill="#FDFAFA"/>
			
				<rect x="296.01" y="304.339" transform="matrix(0.8944 0.4472 -0.4472 0.8944 176.1998 -101.9391)" width="15.999" height="35.775" data-original="#000000" class="active-path" data-old_color="#F8F5F5" fill="#FDFAFA"/>
			
				<rect x="271.968" y="352.31" transform="matrix(-0.8944 -0.4472 0.4472 -0.8944 364.8218 826.5173)" width="16" height="35.775" data-original="#000000" class="active-path" data-old_color="#F8F5F5" fill="#FDFAFA"/>
			
				<rect x="248.007" y="400.313" transform="matrix(-0.8944 -0.4472 0.4472 -0.8944 297.9605 906.7399)" width="16" height="35.775" data-original="#000000" class="active-path" data-old_color="#F8F5F5" fill="#FDFAFA"/>
			
				<rect x="223.965" y="448.332" transform="matrix(-0.8944 -0.4472 0.4472 -0.8944 230.9398 986.9571)" width="15.999" height="35.775" data-original="#000000" class="active-path" data-old_color="#F8F5F5" fill="#FDFAFA"/>
			
				<rect x="351.989" y="304.316" transform="matrix(-0.8944 -0.4472 0.4472 -0.8944 537.8779 771.3836)" width="15.999" height="35.775" data-original="#000000" class="active-path" data-old_color="#F8F5F5" fill="#FDFAFA"/>
			
				<rect x="327.987" y="352.303" transform="matrix(-0.8944 -0.4472 0.4472 -0.8944 470.9481 851.558)" width="15.999" height="35.775" data-original="#000000" class="active-path" data-old_color="#F8F5F5" fill="#FDFAFA"/>
			
				<rect x="303.986" y="400.275" transform="matrix(-0.8944 -0.4472 0.4472 -0.8944 404.0262 931.7018)" width="16" height="35.775" data-original="#000000" class="active-path" data-old_color="#F8F5F5" fill="#FDFAFA"/>
			
				<rect x="279.968" y="448.326" transform="matrix(-0.8944 -0.4472 0.4472 -0.8944 337.0394 1011.9902)" width="16" height="35.775" data-original="#000000" class="active-path" data-old_color="#F8F5F5" fill="#FDFAFA"/>
		</g>
	</g>
</g></g> </svg>
