<?xml version="1.0" encoding="iso-8859-1"?>
<!-- Generator: Adobe Illustrator 19.0.0, SVG Export Plug-In . SVG Version: 6.00 Build 0)  -->
<svg version="1.1" id="Layer_1" xmlns="http://www.w3.org/2000/svg" xmlns:xlink="http://www.w3.org/1999/xlink" x="0px" y="0px"
	 viewBox="0 0 496 496" style="enable-background:new 0 0 496 496;" xml:space="preserve">
<g>
	<g>
		<g>
			<path d="M496,258.196c0-47.568-35.536-88.072-82.032-94.904C403.136,99.38,348.16,51.78,283.024,50.332
				C265.888,20.54,234.528,2.196,200,2.196c-40.936,0-77.176,26.096-90.528,64.28c-20.6-2.096-40.2,7.464-51.616,24.064
				C25.08,93.62,0,120.788,0,154.196c0,20.104,9.424,38.616,25.04,50.616C9.568,220.676,0,242.332,0,266.196h16
				c0-39.704,32.296-72,71.688-72.008l5.528,0.04l2.312-3.992c10.016-17.296,28.592-28.04,48.472-28.04
				c3.352,0,6.856,0.344,10.424,1.008l7.424,1.4l1.824-7.336C176.96,103.652,224.808,66.196,280,66.196
				c60.512,0,111.672,45.28,119.008,105.32l0.792,6.496l6.52,0.512c41.312,3.232,73.68,38.232,73.68,79.672
				c0,26.08-12.576,50.048-33.432,64.96c-10.048-15.032-27.168-24.96-46.568-24.96H64v16h336c22.056,0,40,17.944,40,40
				c0,22.056-17.944,40-40,40c-22.056,0-40-17.944-40-40v-24h-16v24c0,30.872,25.128,56,56,56s56-25.128,56-56
				c0-5.72-0.872-11.232-2.472-16.432C479.952,320.036,496,290.468,496,258.196z M150.056,146.468
				c-2.048-0.176-4.072-0.272-6.056-0.272c-24.032,0-46.552,12.176-59.856,32.088c-17.272,0.744-33.248,6.52-46.552,15.856
				C24.2,185.292,16,170.436,16,154.196c0-26.144,20.496-47.192,46.648-47.92l4.472-0.128l2.232-3.872
				c7.152-12.384,20.424-20.08,34.648-20.08c3.016,0,6.032,0.368,9.224,1.12l7.56,1.776l1.992-7.504
				C132.104,42.62,163.848,18.196,200,18.196c25.88,0,49.584,12.416,64.496,32.984C211,57.276,165.896,94.404,150.056,146.468z"/>
			<rect x="32" y="298.196" width="16" height="16"/>
			<path d="M280,266.196H96v16h184c30.872,0,56-25.128,56-56s-25.128-56-56-56s-56,25.128-56,56v24h16v-24c0-22.056,17.944-40,40-40
				c22.056,0,40,17.944,40,40C320,248.252,302.056,266.196,280,266.196z"/>
			<rect x="64" y="266.196" width="16" height="16"/>
			<rect x="79.981" y="360.331" transform="matrix(0.8944 0.4472 -0.4472 0.8944 178.432 0.5832)" width="15.999" height="35.775"/>
			
				<rect x="56.019" y="408.302" transform="matrix(-0.8944 -0.4472 0.4472 -0.8944 -69.3186 836.0146)" width="15.999" height="35.775"/>
			
				<rect x="31.978" y="456.305" transform="matrix(-0.8944 -0.4472 0.4472 -0.8944 -136.3307 916.2017)" width="16" height="35.775"/>
			<rect x="135.984" y="360.308" transform="matrix(0.8944 0.4472 -0.4472 0.8944 184.3337 -24.4646)" width="16" height="35.775"/>
			
				<rect x="111.983" y="408.295" transform="matrix(-0.8944 -0.4472 0.4472 -0.8944 36.7024 861.0301)" width="15.999" height="35.775"/>
			
				<rect x="87.981" y="456.307" transform="matrix(-0.8944 -0.4472 0.4472 -0.8944 -30.2382 941.2498)" width="15.999" height="35.775"/>
			
				<rect x="191.987" y="360.31" transform="matrix(0.8944 0.4472 -0.4472 0.8944 190.2489 -49.5097)" width="15.999" height="35.775"/>
			<rect x="167.986" y="408.289" transform="matrix(-0.8944 -0.4472 0.4472 -0.8944 142.8 886.0635)" width="16" height="35.775"/>
			<rect x="143.984" y="456.34" transform="matrix(-0.8944 -0.4472 0.4472 -0.8944 75.8416 966.3591)" width="16" height="35.775"/>
			
				<rect x="247.983" y="360.311" transform="matrix(0.8944 0.4472 -0.4472 0.8944 196.1612 -74.5514)" width="15.999" height="35.775"/>
			
				<rect x="223.989" y="408.307" transform="matrix(-0.8944 -0.4472 0.4472 -0.8944 248.8853 911.1422)" width="15.999" height="35.775"/>
			
				<rect x="199.987" y="456.334" transform="matrix(-0.8944 -0.4472 0.4472 -0.8944 181.9384 991.3924)" width="16" height="35.775"/>
			
				<rect x="303.986" y="360.305" transform="matrix(-0.8944 -0.4472 0.4472 -0.8944 421.9012 855.9823)" width="16" height="35.775"/>
			
				<rect x="279.984" y="408.308" transform="matrix(-0.8944 -0.4472 0.4472 -0.8944 354.966 936.1868)" width="16" height="35.775"/>
			
				<rect x="255.983" y="456.327" transform="matrix(-0.8944 -0.4472 0.4472 -0.8944 288.0201 1016.4221)" width="16" height="35.775"/>
			<rect x="32" y="330.196" width="296" height="16"/>
			<rect y="330.196" width="16" height="16"/>
		</g>
	</g>
</g>
<g>
</g>
<g>
</g>
<g>
</g>
<g>
</g>
<g>
</g>
<g>
</g>
<g>
</g>
<g>
</g>
<g>
</g>
<g>
</g>
<g>
</g>
<g>
</g>
<g>
</g>
<g>
</g>
<g>
</g>
</svg>
