<?xml version="1.0" encoding="iso-8859-1"?>
<!-- Generator: Adobe Illustrator 19.0.0, SVG Export Plug-In . SVG Version: 6.00 Build 0)  -->
<svg version="1.1" id="Layer_1" xmlns="http://www.w3.org/2000/svg" xmlns:xlink="http://www.w3.org/1999/xlink" x="0px" y="0px"
	 viewBox="0 0 496 496" style="enable-background:new 0 0 496 496;" xml:space="preserve">
<g>
	<g>
		<g>
			<path d="M413.968,153.096C402.968,88.184,346.464,40,280,40c-60.16,0-112.592,39.232-129.944,96.272
				C148.008,136.096,145.984,136,144,136c-24.032,0-46.552,12.176-59.856,32.088C37.4,170.112,0,208.776,0,256
				c0,48.52,39.48,88,88,88h48.032c0,0.2-0.032,0.4-0.032,0.6c0,61.424,49.976,111.4,111.4,111.4h1.2
				c61.424,0,111.4-49.976,111.4-111.4c0-0.2-0.024-0.4-0.032-0.6H400c52.936,0,96-43.064,96-96
				C496,200.432,460.464,159.928,413.968,153.096z M88,327.992V328c-39.704,0-72-32.296-72-72c0-39.704,32.296-72,71.688-72.008
				l5.528,0.04l2.312-3.992C105.544,162.744,124.12,152,144,152c3.352,0,6.856,0.344,10.424,1.008l7.424,1.4l1.824-7.336
				C176.96,93.456,224.808,56,280,56c60.512,0,111.672,45.28,119.008,105.32l0.56,4.592C399.84,169.24,400,172.6,400,176
				c0,43.504-23.096,82.768-60.688,104.136c-2.792-3.928-5.76-7.752-9.08-11.328L248,180.24l-82.232,88.56
				c-15.376,16.56-25.104,37.16-28.416,59.192H88z M248.6,440h-1.2c-52.6,0-95.4-42.8-95.4-95.4c0-24.16,9.056-47.2,25.488-64.904
				L248,203.76l70.512,75.936C334.944,297.4,344,320.448,344,344.6C344,397.2,301.2,440,248.6,440z M400,328h-41.352
				c-1.8-11.976-5.44-23.528-10.936-34.232C390.032,269.504,416,225.136,416,176c0-2.128-0.176-4.2-0.272-6.296
				C452.432,177.088,480,209.776,480,248C480,292.112,444.112,328,400,328z"/>
			<rect x="312" y="344" width="16" height="16"/>
			<rect x="280" y="376" width="16" height="16"/>
			<rect x="248" y="408" width="16" height="16"/>
		</g>
	</g>
</g>
<g>
</g>
<g>
</g>
<g>
</g>
<g>
</g>
<g>
</g>
<g>
</g>
<g>
</g>
<g>
</g>
<g>
</g>
<g>
</g>
<g>
</g>
<g>
</g>
<g>
</g>
<g>
</g>
<g>
</g>
</svg>
