<?xml version="1.0" encoding="iso-8859-1"?>
<!-- Generator: Adobe Illustrator 19.0.0, SVG Export Plug-In . SVG Version: 6.00 Build 0)  -->
<svg version="1.1" id="Layer_1" xmlns="http://www.w3.org/2000/svg" xmlns:xlink="http://www.w3.org/1999/xlink" x="0px" y="0px"
	 viewBox="0 0 496.002 496.002" style="enable-background:new 0 0 496.002 496.002;" xml:space="preserve">
<g>
	<g>
		<g>
			<rect x="352.002" y="464.002" width="16" height="32"/>
			<rect x="352.002" y="416.002" width="16" height="32"/>
			<rect x="352.002" y="368.002" width="16" height="32"/>
			<rect x="304.002" y="440.002" width="16" height="32"/>
			<rect x="304.002" y="392.002" width="16" height="32"/>
			<rect x="256.002" y="464.002" width="16" height="32"/>
			<rect x="256.002" y="416.002" width="16" height="32"/>
			<rect x="256.002" y="368.002" width="16" height="32"/>
			<rect x="208.002" y="440.002" width="16" height="32"/>
			<rect x="208.002" y="392.002" width="16" height="32"/>
			<rect x="160.002" y="464.002" width="16" height="32"/>
			<rect x="160.002" y="416.002" width="16" height="32"/>
			<rect x="160.002" y="368.002" width="16" height="32"/>
			<rect x="112.002" y="440.002" width="16" height="32"/>
			<rect x="112.002" y="392.002" width="16" height="32"/>
			<path d="M413.978,209.098c-11.008-64.912-67.52-113.096-133.976-113.096c-48.832,0-92.584,25.856-116.6,66.104
				c-19.352-13.088-32.224-33.736-34.856-56.712c-3.328-29.016,8.704-56.616,32.168-73.84c4.632-3.408,7.288-8.56,7.288-14.136
				c0-4.672-1.832-9.064-5.16-12.36c-3.328-3.304-7.736-5.128-12.432-5.056c-2.16,0.016-4.008,0.04-4.688,0.072
				c-41.216,1.68-79.136,19.536-106.776,50.28C11.338,81.058-2.374,120.77,0.338,162.178c1.96,29.952,12.872,58.168,31.48,82.224
				c-19.4,16.152-31.816,40.432-31.816,67.6c0,48.52,39.48,88,88,88v-16c-39.696,0-72-32.296-72-72
				c0-39.704,32.304-72,71.688-72.008l5.536,0.04l2.312-3.992c10.008-17.296,28.576-28.04,48.464-28.04
				c3.352,0,6.856,0.336,10.416,1.008l7.424,1.4l1.824-7.336c13.296-53.624,61.136-91.072,116.336-91.072
				c60.504,0,111.672,45.28,119.008,105.32l0.56,4.552c0.272,3.344,0.432,6.72,0.432,10.128c0,66.168-53.832,120-120,120v16
				c74.992,0,136-61.008,136-136c0-2.12-0.176-4.2-0.272-6.296c36.704,7.384,64.272,40.064,64.272,78.296c0,44.112-35.888,80-80,80
				v16c52.936,0,96-43.064,96-96C496.002,256.426,460.466,215.93,413.978,209.098z M150.05,192.274
				c-26.712-2.368-51.504,10.264-65.912,31.816c-14.176,0.616-27.464,4.64-39.136,11.208
				c-16.976-21.672-26.928-47.144-28.696-74.168c-2.432-37.064,9.832-72.608,34.528-100.08
				c24.736-27.504,58.664-43.488,95.544-44.992c0.616-0.024,2.264-0.04,4.176-0.056c0.008,0,0.008,0,0.016,0
				c0.488,0,0.816,0.224,1.008,0.416c0.192,0.192,0.424,0.52,0.424,1c0,0.632-0.592,1.12-0.76,1.24
				c-28.152,20.656-42.576,53.76-38.592,88.552c3.24,28.28,19.36,53.544,43.464,69.16
				C153.81,181.514,151.722,186.778,150.05,192.274z"/>
			<rect x="216.002" y="0.002" width="16" height="16"/>
			<rect x="232.002" y="16.002" width="16" height="16"/>
			<rect x="216.002" y="32.002" width="16" height="16"/>
			<rect x="200.002" y="16.002" width="16" height="16"/>
			<rect x="184.002" y="64.002" width="16" height="16"/>
			<rect x="200.002" y="80.002" width="16" height="16"/>
			<rect x="184.002" y="96.002" width="16" height="16"/>
			<rect x="168.002" y="80.002" width="16" height="16"/>
		</g>
	</g>
</g>
<g>
</g>
<g>
</g>
<g>
</g>
<g>
</g>
<g>
</g>
<g>
</g>
<g>
</g>
<g>
</g>
<g>
</g>
<g>
</g>
<g>
</g>
<g>
</g>
<g>
</g>
<g>
</g>
<g>
</g>
</svg>
