<?xml version="1.0" encoding="iso-8859-1"?>
<!-- Generator: Adobe Illustrator 19.0.0, SVG Export Plug-In . SVG Version: 6.00 Build 0)  -->
<svg version="1.1" id="Layer_1" xmlns="http://www.w3.org/2000/svg" xmlns:xlink="http://www.w3.org/1999/xlink" x="0px" y="0px"
	 viewBox="0 0 496 496" style="enable-background:new 0 0 496 496;" xml:space="preserve">
<g>
	<g>
		<g>
			<path d="M413.976,153.096C402.968,88.184,346.456,40,280,40c-60.16,0-112.6,39.232-129.952,96.272
				c-26.72-2.328-51.504,10.264-65.904,31.816C37.4,170.112,0,208.768,0,256c0,48.52,39.48,88,88,88h88c0,17.648,14.352,32,32,32
				s32-14.352,32-32v-1.352c0-5.8-1.576-11.488-4.56-16.472L208,280.456l-27.44,45.736c-0.352,0.584-0.616,1.208-0.928,1.816H88
				c-39.696,0-72-32.296-72-72c0-39.704,32.304-72,71.688-72.008l5.536,0.04l2.312-3.992C105.544,162.744,124.112,152,144,152
				c3.352,0,6.856,0.344,10.416,1.008l7.424,1.4l1.824-7.336C176.96,93.456,224.8,56,280,56c60.504,0,111.672,45.28,119.008,105.32
				l0.56,4.552C399.84,169.216,400,172.584,400,176c0,60.536-45.104,110.608-103.44,118.72L288,280.456l-27.44,45.736
				c-2.984,4.976-4.56,10.656-4.56,16.456V344c0,17.648,14.352,32,32,32s32-14.352,32-32h80c52.936,0,96-43.064,96-96
				C496,200.432,460.464,159.928,413.976,153.096z M192,342.648c0-2.896,0.792-5.752,2.28-8.232L208,311.544l13.712,22.856
				c1.496,2.496,2.288,5.352,2.288,8.248V344c0,8.824-7.176,16-16,16c-8.824,0-16-7.176-16-16V342.648z M304,344
				c0,8.824-7.176,16-16,16c-8.824,0-16-7.176-16-16v-1.352c0-2.896,0.792-5.552,2.28-8.032L287.968,312c0.016,0,0.04,0,0.056,0
				l13.688,22.608c1.496,2.496,2.288,5.144,2.288,8.04V344z M400,328h-83.632c-0.312-0.608-0.576-1.232-0.928-1.824l-9.992-16.656
				C368.304,297.568,416,242.288,416,176c0-2.128-0.176-4.2-0.272-6.296C452.432,177.088,480,209.768,480,248
				C480,292.112,444.112,328,400,328z"/>
			<path d="M280,264v-1.352c0-5.8-1.576-11.488-4.56-16.472L248,200.456l-27.44,45.736c-2.984,4.976-4.56,10.656-4.56,16.456V264
				c0,17.648,14.352,32,32,32S280,281.648,280,264z M264,264c0,8.824-7.176,16-16,16c-8.824,0-16-7.176-16-16v-1.352
				c0-2.896,0.792-5.752,2.28-8.232L248,231.544l13.712,22.856c1.496,2.496,2.288,5.352,2.288,8.248V264z"/>
			<path d="M168,360.456l-27.44,45.736c-2.984,4.976-4.56,10.656-4.56,16.456V424c0,17.648,14.352,32,32,32s32-14.352,32-32v-1.352
				c0-5.8-1.576-11.488-4.56-16.472L168,360.456z M184,424c0,8.824-7.176,16-16,16c-8.824,0-16-7.176-16-16v-1.352
				c0-2.896,0.792-5.752,2.28-8.232L168,391.544l13.712,22.856c1.496,2.496,2.288,5.352,2.288,8.248V424z"/>
			<path d="M248,360.456l-27.44,45.736c-2.984,4.976-4.56,10.656-4.56,16.456V424c0,17.648,14.352,32,32,32s32-14.352,32-32v-1.352
				c0-5.8-1.576-11.488-4.56-16.472L248,360.456z M264,424c0,8.824-7.176,16-16,16c-8.824,0-16-7.176-16-16v-1.352
				c0-2.896,0.792-5.752,2.28-8.232L248,391.544l13.712,22.856c1.496,2.496,2.288,5.352,2.288,8.248V424z"/>
			<path d="M328,360.456l-27.44,45.736c-2.984,4.976-4.56,10.656-4.56,16.456V424c0,17.648,14.352,32,32,32s32-14.352,32-32v-1.352
				c0-5.8-1.576-11.488-4.56-16.472L328,360.456z M344,424c0,8.824-7.176,16-16,16c-8.824,0-16-7.176-16-16v-1.352
				c0-2.896,0.792-5.752,2.28-8.232L328,391.544l13.712,22.856c1.496,2.496,2.288,5.352,2.288,8.248V424z"/>
		</g>
	</g>
</g>
<g>
</g>
<g>
</g>
<g>
</g>
<g>
</g>
<g>
</g>
<g>
</g>
<g>
</g>
<g>
</g>
<g>
</g>
<g>
</g>
<g>
</g>
<g>
</g>
<g>
</g>
<g>
</g>
<g>
</g>
</svg>
