<?xml version="1.0" encoding="iso-8859-1"?>
<!-- Generator: Adobe Illustrator 19.0.0, SVG Export Plug-In . SVG Version: 6.00 Build 0)  -->
<svg version="1.1" id="Layer_1" xmlns="http://www.w3.org/2000/svg" xmlns:xlink="http://www.w3.org/1999/xlink" x="0px" y="0px"
	 viewBox="0 0 496 496" style="enable-background:new 0 0 496 496;" xml:space="preserve">
<g>
	<g>
		<g>
			<path d="M496,264c0-47.568-35.536-88.072-82.032-94.904C402.968,104.184,346.464,56,280,56
				c-60.16,0-112.592,39.232-129.944,96.272C148.008,152.096,145.984,152,144,152c-24.032,0-46.552,12.176-59.856,32.088
				C37.4,186.112,0,224.776,0,272c0,48.344,39.192,87.688,87.48,87.976C77.56,381.976,72,406.344,72,432v8h16v-8
				c0-88.224,71.776-160,160-160s160,71.776,160,160v8h16v-8c0-25.808-5.632-50.32-15.656-72.424
				C457.384,355.328,496,314.12,496,264z M400.312,343.984C369.832,291.44,312.992,256,248,256c-65,0-121.84,35.448-152.32,88H88
				c-39.704,0-72-32.296-72-72c0-39.704,32.296-72,71.688-72.008l5.528,0.04l2.312-3.992C105.544,178.744,124.12,168,144,168
				c3.352,0,6.856,0.344,10.424,1.008l7.424,1.4l1.824-7.336C176.96,109.456,224.808,72,280,72
				c60.512,0,111.672,45.28,119.008,105.32l0.792,6.496l6.52,0.512C447.632,187.56,480,222.56,480,264
				C480,308,444.28,343.816,400.312,343.984z"/>
			<path d="M248,304c-70.576,0-128,57.424-128,128v8h16v-8c0-61.76,50.24-112,112-112s112,50.24,112,112v8h16v-8
				C376,361.424,318.576,304,248,304z"/>
			<path d="M248,352c-44.112,0-80,35.888-80,80v8h16v-8c0-35.288,28.712-64,64-64c35.288,0,64,28.712,64,64v8h16v-8
				C328,387.888,292.112,352,248,352z"/>
			<path d="M248,400c-17.648,0-32,14.352-32,32v8h16v-8c0-8.824,7.176-16,16-16c8.824,0,16,7.176,16,16v8h16v-8
				C280,414.352,265.648,400,248,400z"/>
		</g>
	</g>
</g>
<g>
</g>
<g>
</g>
<g>
</g>
<g>
</g>
<g>
</g>
<g>
</g>
<g>
</g>
<g>
</g>
<g>
</g>
<g>
</g>
<g>
</g>
<g>
</g>
<g>
</g>
<g>
</g>
<g>
</g>
</svg>
