<?xml version="1.0" encoding="iso-8859-1"?>
<!-- Generator: Adobe Illustrator 19.0.0, SVG Export Plug-In . SVG Version: 6.00 Build 0)  -->
<svg version="1.1" id="Layer_1" xmlns="http://www.w3.org/2000/svg" xmlns:xlink="http://www.w3.org/1999/xlink" x="0px" y="0px"
	 viewBox="0 0 496 496" style="enable-background:new 0 0 496 496;" xml:space="preserve">
<g>
	<g>
		<path d="M463.96,277.432C462.6,230.088,423.664,192,376,192c-14.44,0-28.136,3.648-40.352,9.96C303.448,146.296,244.6,112,180,112
			C80.752,112,0,192.744,0,292v28h16v-28c0-90.432,73.568-164,164-164c59.072,0,112.864,31.488,142.12,82.544
			c-9.024,7.016-16.632,15.84-22.44,26.088C278.264,190.408,231.368,160,180,160c-72.784,0-132,59.216-132,132v28h16v-28
			c0-63.96,52.04-116,116-116c43.992,0,84.176,25.424,103.632,64.32c-11.096,0.88-21.44,4.992-29.936,11.616
			C239.152,225.264,210.864,208,180,208c-46.32,0-84,37.68-84,84v28h16v-28c0-37.496,30.504-68,68-68
			c26.768,0,51.008,16.144,61.864,40.424c-1.656,2.416-3.168,4.944-4.44,7.632c-8.664,0.392-16.8,2.816-24.008,6.728
			C208.128,265.472,195.176,256,180,256c-19.848,0-36,16.152-36,36v28h16v-28c0-11.024,8.968-20,20-20
			c10.056,0,18.312,7.48,19.712,17.152C189.992,299.232,184,312.928,184,328c0,30.88,25.128,56,56,56h200c30.872,0,56-25.12,56-56
			C496,306.256,483.344,286.616,463.96,277.432z M440,368H240c-22.056,0-40-17.944-40-40c0-22.056,17.944-40,40-40
			c0.496,0,0.976,0.04,1.464,0.072l6.832,0.416l1.992-5.704C255.904,266.768,271.064,256,288,256c3.896,0,7.784,0.576,11.536,1.712
			l6.992,2.104l2.736-6.768C320.336,225.68,346.52,208,376,208c39.704,0,72,32.304,72,72l-0.336,8.344l5.544,1.944
			C469.232,295.904,480,311.064,480,328C480,350.056,462.056,368,440,368z"/>
	</g>
</g>
<g>
</g>
<g>
</g>
<g>
</g>
<g>
</g>
<g>
</g>
<g>
</g>
<g>
</g>
<g>
</g>
<g>
</g>
<g>
</g>
<g>
</g>
<g>
</g>
<g>
</g>
<g>
</g>
<g>
</g>
</svg>
