<?xml version="1.0"?>
<svg xmlns="http://www.w3.org/2000/svg" xmlns:xlink="http://www.w3.org/1999/xlink" version="1.1" id="Layer_1" x="0px" y="0px" viewBox="0 0 496 496" style="enable-background:new 0 0 496 496;" xml:space="preserve" width="512px" height="512px" class=""><g><g>
	<g>
		<g>
			<path d="M424.872,348.344l-88.424,7.792l-49.44-68.04c4.552-4.432,8.32-9.632,11.16-15.376l26.632,8.648l12.184,58.6     l15.672-3.256l-10.32-49.648l12.616,4.096l4.592,30.496l15.832-2.384l-3.4-22.584l18.128,5.888l4.936-15.216l-18.12-5.888     l16.016-16.264l-11.392-11.224l-21.64,21.96l-12.616-4.096l37.528-34.096l-10.768-11.84l-44.296,40.248l-26.616-8.648     c0.528-3.104,0.864-6.264,0.864-9.512s-0.336-6.408-0.872-9.504l79.984-25.992l66.952,58.28l10.504-12.072l-59.704-51.976     l20.184-6.56l44.304,40.248l10.768-11.84l-37.536-34.104l12.616-4.096l21.632,21.968l11.408-11.224l-16.024-16.272l18.12-5.888     l-4.936-15.216l-18.12,5.888l3.4-22.576l-15.832-2.384l-4.592,30.488l-12.616,4.104l10.328-49.648l-15.672-3.256l-12.184,58.608     l-20.184,6.56l17.76-77.144l-15.592-3.584l-19.912,86.504l-80,25.992c-2.84-5.752-6.608-10.952-11.16-15.376l16.456-22.648     l59.496,6.52l1.752-15.904l-50.416-5.52l7.8-10.736l30.416,5.048l2.624-15.784l-22.528-3.744l11.2-15.416l-12.936-9.408     l-11.2,15.416l-10.52-20.272l-14.2,7.376l14.208,27.368l-7.8,10.728l-20.832-46.232l-14.592,6.568l24.6,54.568l-16.44,22.624     c-5.544-2.936-11.64-4.92-18.088-5.848v-84.104l76.12-45.672l-8.232-13.72L256,89.872V68.64l51.968-29.696l-7.936-13.888     L256,50.216V36.944l27.576-13.792l-7.16-14.312L256,19.056V0h-16v19.056L219.576,8.848l-7.16,14.312L240,36.944v13.272     l-44.032-25.16l-7.936,13.888L240,68.64v21.232l-67.88-40.728l-8.232,13.72L240,108.528v84.112     c-6.44,0.928-12.544,2.912-18.088,5.848l-16.44-22.624l24.6-54.568l-14.592-6.568l-20.832,46.232l-7.8-10.728l14.208-27.368     l-14.2-7.376l-10.52,20.272l-11.2-15.416l-12.936,9.408l11.2,15.416l-22.528,3.744l2.624,15.784l30.416-5.048l7.8,10.736     l-50.416,5.52l1.752,15.904l59.496-6.52L209,207.936c-4.552,4.432-8.32,9.632-11.16,15.376l-80-25.992l-19.912-86.504     L82.336,114.4l17.76,77.144l-20.184-6.56l-12.184-58.608l-15.672,3.256l10.328,49.648l-12.616-4.104l-4.592-30.488l-15.832,2.384     l3.4,22.576l-18.12-5.888l-4.936,15.216l18.12,5.888l-16.024,16.272l11.408,11.224l21.632-21.968l12.616,4.096l-37.536,34.104     l10.768,11.84l44.304-40.248l20.184,6.56L35.432,258.72l10.504,12.072l66.952-58.28l79.984,25.992     C192.336,241.592,192,244.752,192,248s0.336,6.408,0.872,9.504l-26.616,8.648l-44.296-40.248l-10.768,11.84l37.528,34.096     l-12.616,4.096l-21.64-21.96L103.072,265.2l16.016,16.264l-18.12,5.888l4.936,15.216l18.128-5.888l-3.4,22.584l15.832,2.384     l4.592-30.496l12.616-4.096l-10.32,49.648l15.672,3.256l12.184-58.6l26.632-8.648c2.84,5.752,6.608,10.952,11.16,15.376     l-49.44,68.04l-88.432-7.792l-1.408,15.936l78.864,6.952l-12.48,17.176l-59.496-6.52l-1.752,15.904l50.416,5.52l-7.8,10.736     l-30.424-5.048l-2.624,15.784l22.528,3.744l-11.2,15.416l12.936,9.408l11.208-15.424l10.52,20.272l14.2-7.376l-14.208-27.368     l7.8-10.728l20.832,46.24l14.592-6.568l-24.6-54.576l12.48-17.176l30.984,72.856l14.72-6.256l-34.736-81.696l49.424-68.024     c5.544,2.936,11.64,4.92,18.088,5.848v28l-51.968,29.696l7.936,13.888L240,349.784v13.272l-27.576,13.792l7.16,14.312     L240,380.944V400h16v-19.056l20.424,10.208l7.16-14.312L256,363.056v-13.272l44.032,25.16l7.936-13.888L256,331.36v-28     c6.44-0.928,12.544-2.912,18.088-5.848l49.424,68.024l-34.736,81.696l14.72,6.256l30.984-72.856l12.48,17.176l-24.6,54.576     l14.592,6.568l20.832-46.24l7.8,10.728l-14.208,27.368l14.2,7.376l10.52-20.272l11.208,15.424l12.936-9.408l-11.2-15.416     l22.528-3.744l-2.624-15.784l-30.424,5.048l-7.8-10.736l50.416-5.52l-1.752-15.904l-59.496,6.52l-12.48-17.176l78.872-6.936     L424.872,348.344z M248,288c-22.056,0-40-17.944-40-40c0-22.056,17.944-40,40-40c22.056,0,40,17.944,40,40     C288,270.056,270.056,288,248,288z" data-original="#000000" class="active-path" data-old_color="#FBFAFA" fill="#FDFDFD"/>
			<rect x="240" y="480" width="16" height="16" data-original="#000000" class="active-path" data-old_color="#FBFAFA" fill="#FDFDFD"/>
			<rect x="240" y="448" width="16" height="16" data-original="#000000" class="active-path" data-old_color="#FBFAFA" fill="#FDFDFD"/>
			<rect x="256" y="464" width="16" height="16" data-original="#000000" class="active-path" data-old_color="#FBFAFA" fill="#FDFDFD"/>
			<rect x="224" y="464" width="16" height="16" data-original="#000000" class="active-path" data-old_color="#FBFAFA" fill="#FDFDFD"/>
			<rect x="24" y="328" width="16" height="16" data-original="#000000" class="active-path" data-old_color="#FBFAFA" fill="#FDFDFD"/>
			<rect x="24" y="296" width="16" height="16" data-original="#000000" class="active-path" data-old_color="#FBFAFA" fill="#FDFDFD"/>
			<rect x="40" y="312" width="16" height="16" data-original="#000000" class="active-path" data-old_color="#FBFAFA" fill="#FDFDFD"/>
			<rect x="8" y="312" width="16" height="16" data-original="#000000" class="active-path" data-old_color="#FBFAFA" fill="#FDFDFD"/>
			<rect x="456" y="328" width="16" height="16" data-original="#000000" class="active-path" data-old_color="#FBFAFA" fill="#FDFDFD"/>
			<rect x="456" y="296" width="16" height="16" data-original="#000000" class="active-path" data-old_color="#FBFAFA" fill="#FDFDFD"/>
			<rect x="472" y="312" width="16" height="16" data-original="#000000" class="active-path" data-old_color="#FBFAFA" fill="#FDFDFD"/>
			<rect x="440" y="312" width="16" height="16" data-original="#000000" class="active-path" data-old_color="#FBFAFA" fill="#FDFDFD"/>
			<rect x="112" y="72" width="16" height="16" data-original="#000000" class="active-path" data-old_color="#FBFAFA" fill="#FDFDFD"/>
			<rect x="112" y="40" width="16" height="16" data-original="#000000" class="active-path" data-old_color="#FBFAFA" fill="#FDFDFD"/>
			<rect x="128" y="56" width="16" height="16" data-original="#000000" class="active-path" data-old_color="#FBFAFA" fill="#FDFDFD"/>
			<rect x="96" y="56" width="16" height="16" data-original="#000000" class="active-path" data-old_color="#FBFAFA" fill="#FDFDFD"/>
			<rect x="368" y="72" width="16" height="16" data-original="#000000" class="active-path" data-old_color="#FBFAFA" fill="#FDFDFD"/>
			<rect x="368" y="40" width="16" height="16" data-original="#000000" class="active-path" data-old_color="#FBFAFA" fill="#FDFDFD"/>
			<rect x="384" y="56" width="16" height="16" data-original="#000000" class="active-path" data-old_color="#FBFAFA" fill="#FDFDFD"/>
			<rect x="352" y="56" width="16" height="16" data-original="#000000" class="active-path" data-old_color="#FBFAFA" fill="#FDFDFD"/>
		</g>
	</g>
</g></g> </svg>
