<?xml version="1.0" encoding="iso-8859-1"?>
<!-- Generator: Adobe Illustrator 19.0.0, SVG Export Plug-In . SVG Version: 6.00 Build 0)  -->
<svg version="1.1" id="Layer_1" xmlns="http://www.w3.org/2000/svg" xmlns:xlink="http://www.w3.org/1999/xlink" x="0px" y="0px"
	 viewBox="0 0 496 496" style="enable-background:new 0 0 496 496;" xml:space="preserve">
<g>
	<g>
		<g>
			<path d="M413.968,169.096c-10.832-63.92-65.816-111.512-130.944-112.96C265.88,26.336,234.536,8,200,8
				c-40.936,0-77.168,26.096-90.52,64.288c-20.696-2.168-40.208,7.464-51.624,24.056C25.08,99.424,0,126.6,0,160
				c0,20.112,9.432,38.624,25.048,50.616C9.568,226.48,0,248.136,0,272c0,48.52,39.48,88,88,88h312c52.936,0,96-43.064,96-96
				C496,216.424,460.464,175.928,413.968,169.096z M16,160c0-26.144,20.496-47.192,46.648-47.928l4.472-0.128l2.232-3.872
				C78,93.088,95.08,84.824,113.216,89.112l7.56,1.792l2-7.512C132.104,48.424,163.848,24,200,24
				c25.88,0,49.584,12.416,64.496,32.984c-53.496,6.096-98.608,43.224-114.44,95.288C148.008,152.088,145.984,152,144,152
				c-24.032,0-46.56,12.184-59.856,32.08c-17.272,0.752-33.248,6.528-46.552,15.864C24.2,191.096,16,176.24,16,160z M400,344H88
				c-39.704,0-72-32.296-72-72c0-39.696,32.296-72,71.688-72.008l5.536,0.04l2.304-3.992C105.536,178.744,124.12,168,144,168
				c3.352,0,6.856,0.336,10.424,1.008l7.424,1.4l1.824-7.336C176.96,109.448,224.8,72,280,72c60.512,0,111.672,45.28,119.008,105.32
				l0.56,4.592C399.84,185.24,400,188.6,400,192c0,66.168-53.832,120-120,120v16c74.992,0,136-61.008,136-136
				c0-2.12-0.176-4.2-0.272-6.296C452.432,193.088,480,225.768,480,264C480,308.112,444.112,344,400,344z"/>
			<polygon points="180.424,400.84 160,411.056 160,392 144,392 144,411.056 123.576,400.84 116.424,415.16 134.112,424 
				116.424,432.84 123.576,447.16 144,436.944 144,456 160,456 160,436.944 180.424,447.16 187.576,432.84 169.888,424 
				187.576,415.16 			"/>
			<polygon points="372.424,400.84 352,411.056 352,392 336,392 336,411.056 315.576,400.84 308.424,415.16 326.112,424 
				308.424,432.84 315.576,447.16 336,436.944 336,456 352,456 352,436.944 372.424,447.16 379.576,432.84 361.888,424 
				379.576,415.16 			"/>
			<polygon points="276.424,432.84 256,443.056 256,424 240,424 240,443.056 219.576,432.84 212.424,447.16 230.112,456 
				212.424,464.84 219.576,479.16 240,468.944 240,488 256,488 256,468.944 276.424,479.16 283.576,464.84 265.888,456 
				283.576,447.16 			"/>
		</g>
	</g>
</g>
<g>
</g>
<g>
</g>
<g>
</g>
<g>
</g>
<g>
</g>
<g>
</g>
<g>
</g>
<g>
</g>
<g>
</g>
<g>
</g>
<g>
</g>
<g>
</g>
<g>
</g>
<g>
</g>
<g>
</g>
</svg>
