style="fill:white" <?xml version="1.0" encoding="iso-8859-1"?>
<!-- Generator: Adobe Illustrator 19.0.0, SVG Export Plug-In . SVG Version: 6.00 Build 0)  -->
<svg version="1.1" id="Layer_1" xmlns="http://www.w3.org/2000/svg" xmlns:xlink="http://www.w3.org/1999/xlink" x="0px" y="0px"
	 viewBox="0 0 496 496" style="enable-background:new 0 0 496 496;" xml:space="preserve">
<g>
	<g>
		<g>
			<path style="fill:white" d="M371.712,348.928l-33.104,14.144l-23.32-13.464l42.616-15.672L352.768,320l5.136-13.936l-42.616-15.672l23.32-13.464
				l33.104,14.144l6.28-14.72l-22.064-9.424l13.856-8l-8-13.856l-13.856,8l2.872-23.832l-15.888-1.904l-4.296,35.728l-23.32,13.464
				l7.736-44.744l-14.632-2.52l-9.512-11.416L256,246.92V220l28.8-21.6l-9.6-12.8L256,200v-16h-16v16l-19.2-14.4l-9.6,12.8L240,220
				v26.92l-34.872-29.064l-9.512,11.416l-14.632,2.52l7.736,44.744l-23.32-13.464l-4.296-35.728l-15.888,1.904l2.872,23.832
				l-13.856-8l-8,13.856l13.856,8l-22.064,9.424l6.28,14.72l33.104-14.144l23.32,13.464l-42.616,15.672l5.12,13.928l-5.136,13.936
				l42.616,15.672l-23.32,13.464l-33.104-14.144l-6.28,14.72l22.064,9.424l-13.856,8l8,13.856l13.856-8L145.2,410.76l15.888,1.904
				l4.296-35.728l23.32-13.464l-7.736,44.744l14.632,2.52l9.512,11.416L240,393.08V420l-28.8,21.6l9.592,12.8L240,440v16h16v-16
				l19.2,14.4l9.592-12.8L256,420v-26.92l34.872,29.064l9.512-11.416l14.632-2.52l-7.736-44.744l23.32,13.464l4.296,35.728
				l15.888-1.904l-2.872-23.832l13.856,8l8-13.856l-13.856-8l22.064-9.424L371.712,348.928z M146.552,320l52.184-19.2L232,320
				l-33.256,19.2L146.552,320z M240,372.256l-42.728,35.6l9.472-54.792l33.256-19.2V372.256z M240,306.144l-33.256-19.2l-9.472-54.8
				L240,267.752V306.144z M256,267.752l42.728-35.608l-9.472,54.792L256,306.144V267.752z M256,372.248v-38.392l33.256,19.2
				l9.472,54.8L256,372.248z M297.264,339.2L264,320l33.256-19.2l52.192,19.2L297.264,339.2z"/>
			<path style="fill:white" d="M413.968,153.096C402.968,88.184,346.464,40,280,40c-60.16,0-112.592,39.232-129.944,96.272
				C148.008,136.096,145.984,136,144,136c-24.032,0-46.552,12.176-59.856,32.088C37.4,170.112,0,208.776,0,256
				c0,48.52,39.48,88,88,88h48v-16H88c-39.704,0-72-32.296-72-72c0-39.704,32.296-72,71.688-72.008l5.528,0.04l2.312-3.992
				C105.544,162.744,124.12,152,144,152c3.352,0,6.856,0.344,10.424,1.008l7.424,1.4l1.824-7.336C176.96,93.456,224.808,56,280,56
				c60.512,0,111.672,45.28,119.008,105.32l0.792,6.496l6.52,0.512C447.632,171.56,480,206.56,480,248c0,44.112-35.888,80-80,80h-40
				v16h40c52.936,0,96-43.064,96-96C496,200.432,460.464,159.928,413.968,153.096z"/>
		</g>
	</g>
</g>
<g>
</g>
<g>
</g>
<g>
</g>
<g>
</g>
<g>
</g>
<g>
</g>
<g>
</g>
<g>
</g>
<g>
</g>
<g>
</g>
<g>
</g>
<g>
</g>
<g>
</g>
<g>
</g>
<g>
</g>
</svg>
