<?xml version="1.0" encoding="iso-8859-1"?>
<!-- Generator: Adobe Illustrator 19.0.0, SVG Export Plug-In . SVG Version: 6.00 Build 0)  -->
<svg version="1.1" id="Layer_1" xmlns="http://www.w3.org/2000/svg" xmlns:xlink="http://www.w3.org/1999/xlink" x="0px" y="0px"
	 viewBox="0 0 496 496" style="enable-background:new 0 0 496 496;" xml:space="preserve">
<g>
	<g>
		<g>
			<path d="M413.976,113.096C402.968,48.184,346.456,0,280,0c-60.16,0-112.6,39.232-129.952,96.272
				c-26.728-2.336-51.512,10.264-65.912,31.816C37.4,130.112,0,168.768,0,216c0,48.52,39.48,88,88,88h312c52.936,0,96-43.064,96-96
				C496,160.424,460.464,119.928,413.976,113.096z M400,288H88c-39.696,0-72-32.304-72-72s32.304-72,71.688-72.008l5.536,0.04
				l2.312-3.992C105.544,122.744,124.112,112,144,112c3.352,0,6.856,0.336,10.416,1.008l7.424,1.4l1.824-7.336
				C176.96,53.448,224.8,16,280,16c60.504,0,111.672,45.28,119.008,105.32l0.56,4.552C399.84,129.216,400,132.592,400,136
				c0,66.168-53.832,120-120,120v16c74.992,0,136-61.008,136-136c0-2.12-0.176-4.2-0.272-6.296C452.432,137.088,480,169.768,480,208
				C480,252.112,444.112,288,400,288z"/>
			<polygon points="180.424,328.84 160,339.056 160,320 144,320 144,339.056 123.576,328.84 116.424,343.16 134.112,352 
				116.424,360.84 123.576,375.16 144,364.944 144,384 160,384 160,364.944 180.424,375.16 187.576,360.84 169.888,352 
				187.576,343.16 			"/>
			<polygon points="180.424,408.84 160,419.056 160,400 144,400 144,419.056 123.576,408.84 116.424,423.16 134.112,432 
				116.424,440.84 123.576,455.16 144,444.944 144,464 160,464 160,444.944 180.424,455.16 187.576,440.84 169.888,432 
				187.576,423.16 			"/>
			<polygon points="372.424,328.84 352,339.056 352,320 336,320 336,339.056 315.576,328.84 308.424,343.16 326.112,352 
				308.424,360.84 315.576,375.16 336,364.944 336,384 352,384 352,364.944 372.424,375.16 379.576,360.84 361.888,352 
				379.576,343.16 			"/>
			<polygon points="372.424,408.84 352,419.056 352,400 336,400 336,419.056 315.576,408.84 308.424,423.16 326.112,432 
				308.424,440.84 315.576,455.16 336,444.944 336,464 352,464 352,444.944 372.424,455.16 379.576,440.84 361.888,432 
				379.576,423.16 			"/>
			<polygon points="276.424,360.84 256,371.056 256,352 240,352 240,371.056 219.576,360.84 212.424,375.16 230.112,384 
				212.424,392.84 219.576,407.16 240,396.944 240,416 256,416 256,396.944 276.424,407.16 283.576,392.84 265.888,384 
				283.576,375.16 			"/>
			<polygon points="276.424,440.84 256,451.056 256,432 240,432 240,451.056 219.576,440.84 212.424,455.16 230.112,464 
				212.424,472.84 219.576,487.16 240,476.944 240,496 256,496 256,476.944 276.424,487.16 283.576,472.84 265.888,464 
				283.576,455.16 			"/>
		</g>
	</g>
</g>
<g>
</g>
<g>
</g>
<g>
</g>
<g>
</g>
<g>
</g>
<g>
</g>
<g>
</g>
<g>
</g>
<g>
</g>
<g>
</g>
<g>
</g>
<g>
</g>
<g>
</g>
<g>
</g>
<g>
</g>
</svg>
