<?xml version="1.0" encoding="iso-8859-1"?>
<!-- Generator: Adobe Illustrator 19.0.0, SVG Export Plug-In . SVG Version: 6.00 Build 0)  -->
<svg version="1.1" id="Layer_1" xmlns="http://www.w3.org/2000/svg" xmlns:xlink="http://www.w3.org/1999/xlink" x="0px" y="0px"
	 viewBox="0 0 496 496" style="enable-background:new 0 0 496 496;" xml:space="preserve">
<g>
	<g>
		<path d="M440,336c-5.552,0-10.6,1.968-14.672,5.144l-7.96-4.6L455.68,317.6l-7.096-14.344l-47.872,23.672l-17.984-10.384
			L421.04,297.6l-7.096-14.344l-47.872,23.672l-17.984-10.384L386.4,277.6l-7.096-14.344l-47.872,23.672L289.296,262.6l52.608-14.6
			l-52.608-14.608l42.136-24.328l47.872,23.672L386.4,218.4l-38.312-18.944l17.984-10.384l47.872,23.672l7.096-14.344
			l-38.312-18.944l17.984-10.384l47.872,23.672l7.096-14.344l-38.312-18.944l7.96-4.6C429.4,158.032,434.448,160,440,160
			c13.232,0,24-10.768,24-24s-10.768-24-24-24s-24,10.768-24,24c0,1.856,0.256,3.648,0.664,5.384l-7.296,4.208l2.752-42.648
			l-15.968-1.032l-3.432,53.296l-17.984,10.384l2.752-42.648l-15.968-1.032l-3.432,53.296l-17.984,10.384l2.752-42.648
			l-15.968-1.032l-3.432,53.296l-42.208,24.368l13.728-53.84L256,204.688V156.28l44.44-29.624l-8.872-13.312L256,137.056v-20.768
			l44.44-29.624l-8.872-13.312L256,97.056V76.288l44.44-29.624l-8.872-13.312L256,57.056V46.528c9.288-3.312,16-12.112,16-22.528
			c0-13.232-10.768-24-24-24s-24,10.768-24,24c0,10.416,6.712,19.216,16,22.528v10.528l-35.56-23.712l-8.872,13.312L240,76.28
			v20.768l-35.56-23.712l-8.872,13.312L240,116.28v20.768l-35.56-23.712l-8.872,13.312L240,156.28v48.408l-38.952-38.952
			l13.728,53.84l-42.208-24.368l-3.432-53.296l-15.968,1.032l2.752,42.648l-17.984-10.384l-3.432-53.296l-15.968,1.032l2.752,42.648
			l-17.984-10.384l-3.432-53.296l-15.968,1.032l2.752,42.648l-7.296-4.208C79.744,139.648,80,137.856,80,136
			c0-13.232-10.768-24-24-24s-24,10.768-24,24s10.768,24,24,24c5.552,0,10.6-1.968,14.672-5.144l7.96,4.6L40.32,178.4l7.096,14.344
			l47.872-23.672l17.984,10.384L74.96,198.4l7.096,14.344l47.872-23.672l17.984,10.384L109.6,218.4l7.096,14.344l47.872-23.672
			l42.136,24.328L154.096,248l52.608,14.608l-42.136,24.328l-47.872-23.672L109.6,277.6l38.312,18.944l-17.984,10.384
			l-47.872-23.672L74.96,297.6l38.312,18.944l-17.984,10.384l-47.872-23.672L40.32,317.6l38.312,18.944l-7.96,4.6
			C66.6,337.968,61.552,336,56,336c-13.232,0-24,10.768-24,24s10.768,24,24,24s24-10.768,24-24c0-1.856-0.256-3.648-0.664-5.384
			l7.288-4.208l-2.752,42.648l15.968,1.032l3.432-53.296l17.984-10.384l-2.752,42.648l15.968,1.032l3.432-53.296l17.984-10.384
			l-2.752,42.648l15.968,1.032l3.432-53.296l42.208-24.368l-13.728,53.84L240,291.312v48.408l-44.44,29.624l8.872,13.312
			L240,358.944v20.768l-44.44,29.624l8.872,13.312L240,398.944v20.768l-44.44,29.624l8.872,13.312L240,438.944v10.528
			c-9.288,3.312-16,12.112-16,22.528c0,13.232,10.768,24,24,24s24-10.768,24-24c0-10.416-6.712-19.216-16-22.528v-10.528
			l35.56,23.712l8.872-13.312L256,419.72v-20.768l35.56,23.712l8.872-13.312L256,379.72v-20.768l35.56,23.712l8.872-13.312
			L256,339.72v-48.408l38.952,38.952l-13.728-53.84l42.208,24.368l3.432,53.296l15.968-1.032l-2.752-42.648l17.984,10.384
			l3.432,53.296l15.968-1.032l-2.752-42.648l17.984,10.384l3.432,53.296l15.968-1.032l-2.752-42.648l7.296,4.208
			c-0.384,1.736-0.64,3.528-0.64,5.384c0,13.232,10.768,24,24,24s24-10.768,24-24S453.232,336,440,336z M440,128
			c4.416,0,8,3.592,8,8s-3.584,8-8,8c-4.416,0-8-3.592-8-8S435.584,128,440,128z M56,144c-4.416,0-8-3.592-8-8s3.584-8,8-8
			s8,3.592,8,8S60.416,144,56,144z M56,368c-4.416,0-8-3.592-8-8c0-4.408,3.584-8,8-8s8,3.592,8,8C64,364.408,60.416,368,56,368z
			 M248,16c4.416,0,8,3.592,8,8s-3.584,8-8,8c-4.416,0-8-3.592-8-8S243.584,16,248,16z M248,480c-4.416,0-8-3.592-8-8
			c0-4.408,3.584-8,8-8s8,3.592,8,8C256,476.408,252.416,480,248,480z M259.096,254.384l5.952,23.344L248,260.688l-17.048,17.048
			l5.952-23.344l-23-6.392l23-6.384l-5.952-23.344L248,235.312l17.048-17.048l-5.952,23.344l23,6.392L259.096,254.384z M440,368
			c-4.416,0-8-3.592-8-8c0-4.408,3.584-8,8-8c4.416,0,8,3.592,8,8C448,364.408,444.416,368,440,368z"/>
	</g>
</g>
<g>
</g>
<g>
</g>
<g>
</g>
<g>
</g>
<g>
</g>
<g>
</g>
<g>
</g>
<g>
</g>
<g>
</g>
<g>
</g>
<g>
</g>
<g>
</g>
<g>
</g>
<g>
</g>
<g>
</g>
</svg>
