<?xml version="1.0" encoding="iso-8859-1"?>
<!-- Generator: Adobe Illustrator 19.0.0, SVG Export Plug-In . SVG Version: 6.00 Build 0)  -->
<svg version="1.1" id="Layer_1" xmlns="http://www.w3.org/2000/svg" xmlns:xlink="http://www.w3.org/1999/xlink" x="0px" y="0px"
	 viewBox="0 0 496 496" style="enable-background:new 0 0 496 496;" xml:space="preserve">
<g>
	<g>
		<g>
			<path d="M413.976,114.948C402.968,50.036,346.456,1.852,280,1.852c-60.16,0-112.6,39.232-129.952,96.272
				c-2.04-0.184-4.056-0.272-6.048-0.272c-24.032,0-46.56,12.184-59.856,32.08C37.4,131.964,0,170.62,0,217.852
				c0,48.52,39.48,88,88,88h312c52.936,0,96-43.064,96-96C496,162.276,460.464,121.78,413.976,114.948z M400,289.852H88
				c-39.696,0-72-32.304-72-72s32.304-72,71.688-72.008l5.536,0.04l2.312-3.992c10.008-17.296,28.576-28.04,48.464-28.04
				c3.352,0,6.856,0.336,10.416,1.008l7.424,1.4l1.824-7.336C176.96,55.3,224.8,17.852,280,17.852
				c60.504,0,111.672,45.28,119.008,105.32l0.56,4.552c0.272,3.344,0.432,6.72,0.432,10.128c0,66.168-53.832,120-120,120v16
				c74.992,0,136-61.008,136-136c0-2.12-0.176-4.2-0.272-6.296C452.432,138.94,480,171.62,480,209.852
				C480,253.964,444.112,289.852,400,289.852z"/>
			<polygon points="206.856,325.972 193.144,317.732 137.872,409.852 185.424,409.852 137.248,485.556 150.752,494.148 
				214.576,393.852 166.128,393.852 			"/>
			<polygon points="294.856,325.972 281.144,317.732 225.872,409.852 273.424,409.852 225.248,485.556 238.752,494.148 
				302.576,393.852 254.128,393.852 			"/>
			<polygon points="118.856,325.972 105.144,317.732 49.872,409.852 97.424,409.852 49.248,485.556 62.752,494.148 126.576,393.852 
				78.128,393.852 			"/>
			<polygon points="382.856,325.972 369.144,317.732 313.872,409.852 361.424,409.852 313.248,485.556 326.752,494.148 
				390.576,393.852 342.128,393.852 			"/>
		</g>
	</g>
</g>
<g>
</g>
<g>
</g>
<g>
</g>
<g>
</g>
<g>
</g>
<g>
</g>
<g>
</g>
<g>
</g>
<g>
</g>
<g>
</g>
<g>
</g>
<g>
</g>
<g>
</g>
<g>
</g>
<g>
</g>
</svg>
