<?xml version="1.0" encoding="iso-8859-1"?>
<!-- Generator: Adobe Illustrator 19.0.0, SVG Export Plug-In . SVG Version: 6.00 Build 0)  -->
<svg version="1.1" id="Layer_1" xmlns="http://www.w3.org/2000/svg" xmlns:xlink="http://www.w3.org/1999/xlink" x="0px" y="0px"
	 viewBox="0 0 496 496" style="enable-background:new 0 0 496 496;" xml:space="preserve">
<g>
	<g>
		<path d="M413.976,153.096C402.968,88.184,346.456,40,280,40c-60.16,0-112.6,39.232-129.952,96.272
			c-26.728-2.328-51.504,10.264-65.904,31.816C37.4,170.112,0,208.768,0,256c0,48.52,39.48,88,88,88h139.704l2.496,2.144
			L179.496,456h32.712l77-112H400c52.936,0,96-43.064,96-96C496,200.432,460.464,159.928,413.976,153.096z M205.96,436.848
			l43.84-94.992l-55.848-47.864l44.616-89.224l-15.504,62.04l62.32,54.528L205.96,436.848z M280.68,295.968L240.944,261.2
			L266.248,160h-23.192l-69,138.008L209.04,328H88c-39.696,0-72-32.296-72-72c0-39.704,32.304-72,71.688-72.008l5.536,0.04
			l2.312-3.992C105.544,162.744,124.112,152,144,152c3.352,0,6.856,0.344,10.416,1.008l7.424,1.4l1.824-7.336
			C176.96,93.456,224.8,56,280,56c60.504,0,111.672,45.28,119.008,105.32l0.56,4.552C399.84,169.216,400,172.584,400,176
			C400,241.944,346.536,295.592,280.68,295.968z M400,328h-99.792l6.416-9.336l-9.064-7.928C364.272,302.072,416,245.024,416,176
			c0-2.128-0.176-4.2-0.272-6.296C452.432,177.088,480,209.768,480,248C480,292.112,444.112,328,400,328z"/>
	</g>
</g>
<g>
</g>
<g>
</g>
<g>
</g>
<g>
</g>
<g>
</g>
<g>
</g>
<g>
</g>
<g>
</g>
<g>
</g>
<g>
</g>
<g>
</g>
<g>
</g>
<g>
</g>
<g>
</g>
<g>
</g>
</svg>
