style="fill:white" <?xml version="1.0" encoding="iso-8859-1"?>
<!-- Generator: Adobe Illustrator 19.0.0, SVG Export Plug-In . SVG Version: 6.00 Build 0)  -->
<svg version="1.1" id="Layer_1" xmlns="http://www.w3.org/2000/svg" xmlns:xlink="http://www.w3.org/1999/xlink" x="0px" y="0px"
	 viewBox="0 0 496 496" style="enable-background:new 0 0 496 496;" xml:space="preserve">
<g>
	<g>
		<g>
			<path style="fill:white" d="M413.968,118.948C402.968,54.036,346.464,5.852,280,5.852c-60.16,0-112.6,39.232-129.944,96.272
				c-2.048-0.184-4.072-0.272-6.056-0.272c-24.032,0-46.56,12.184-59.856,32.08C37.4,135.964,0,174.62,0,221.852
				c0,48.52,39.48,88,88,88v-16c-39.704,0-72-32.304-72-72s32.296-72,71.688-72.008l5.536,0.04l2.304-3.992
				c10.008-17.296,28.592-28.04,48.472-28.04c3.352,0,6.856,0.336,10.424,1.008l7.424,1.4l1.824-7.336
				C176.96,59.3,224.8,21.852,280,21.852c60.512,0,111.672,45.28,119.008,105.32l0.56,4.592c0.272,3.328,0.432,6.688,0.432,10.088
				c0,66.168-53.832,120-120,120v16c74.992,0,136-61.008,136-136c0-2.12-0.176-4.2-0.272-6.296
				C452.432,142.94,480,175.62,480,213.852c0,44.112-35.888,80-80,80v16c52.936,0,96-43.064,96-96
				C496,166.276,460.464,125.78,413.968,118.948z"/>
			<rect style="fill:white" x="104.023" y="307.96" transform="matrix(0.8944 0.4472 -0.4472 0.8944 157.5498 -15.6973)" width="16" height="35.775"/>

				<rect style="fill:white" x="79.981" y="355.987" transform="matrix(-0.8944 -0.4472 0.4472 -0.8944 -0.5291 747.6239)" width="15.999" height="35.775"/>

				<rect style="fill:white" x="56.019" y="403.958" transform="matrix(-0.8944 -0.4472 0.4472 -0.8944 -67.3761 827.7858)" width="15.999" height="35.775"/>

				<rect style="fill:white" x="31.978" y="451.961" transform="matrix(-0.8944 -0.4472 0.4472 -0.8944 -134.3881 907.9729)" width="16" height="35.775"/>

				<rect style="fill:white" x="150.098" y="317.849" transform="matrix(0.4472 -0.8944 0.8944 0.4472 -198.5879 330.3757)" width="35.775" height="16"/>

				<rect style="fill:white" x="135.984" y="355.965" transform="matrix(-0.8944 -0.4472 0.4472 -0.8944 105.5769 772.6271)" width="16" height="35.775"/>

				<rect style="fill:white" x="111.983" y="403.952" transform="matrix(-0.8944 -0.4472 0.4472 -0.8944 38.6449 852.8013)" width="15.999" height="35.775"/>

				<rect style="fill:white" x="87.981" y="451.963" transform="matrix(-0.8944 -0.4472 0.4472 -0.8944 -28.2956 933.0211)" width="15.999" height="35.775"/>

				<rect style="fill:white" x="311.984" y="307.973" transform="matrix(0.8944 0.4472 -0.4472 0.8944 179.5092 -108.6988)" width="16" height="35.775"/>

				<rect style="fill:white" x="287.983" y="355.952" transform="matrix(-0.8944 -0.4472 0.4472 -0.8944 393.5303 840.5787)" width="15.999" height="35.775"/>

				<rect style="fill:white" x="263.989" y="404.003" transform="matrix(-0.8944 -0.4472 0.4472 -0.8944 326.587 920.8778)" width="15.999" height="35.775"/>

				<rect style="fill:white" x="239.979" y="451.966" transform="matrix(-0.8944 -0.4472 0.4472 -0.8944 259.6536 1001.0031)" width="16" height="35.775"/>

				<rect style="fill:white" x="368.003" y="307.974" transform="matrix(-0.8944 -0.4472 0.4472 -0.8944 566.5801 785.4752)" width="15.999" height="35.775"/>

				<rect style="fill:white" x="343.962" y="355.969" transform="matrix(-0.8944 -0.4472 0.4472 -0.8944 499.5718 865.6465)" width="16" height="35.775"/>
			<rect style="fill:white" x="320" y="403.997" transform="matrix(-0.8944 -0.4472 0.4472 -0.8944 432.6999 945.9146)" width="16" height="35.775"/>

				<rect style="fill:white" x="295.959" y="451.968" transform="matrix(-0.8944 -0.4472 0.4472 -0.8944 365.7005 1026.0409)" width="15.999" height="35.775"/>
			<polygon style="fill:white" points="198.136,389.852 238.856,321.972 225.144,313.732 169.864,405.852 217.432,405.852 169.248,481.556 
				182.752,490.148 246.568,389.852 			"/>
		</g>
	</g>
</g>
<g>
</g>
<g>
</g>
<g>
</g>
<g>
</g>
<g>
</g>
<g>
</g>
<g>
</g>
<g>
</g>
<g>
</g>
<g>
</g>
<g>
</g>
<g>
</g>
<g>
</g>
<g>
</g>
<g>
</g>
</svg>
