<?xml version="1.0"?>
<svg xmlns="http://www.w3.org/2000/svg" xmlns:xlink="http://www.w3.org/1999/xlink" version="1.1" id="Layer_1" x="0px" y="0px" viewBox="0 0 496 496" style="enable-background:new 0 0 496 496;" xml:space="preserve" width="512px" height="512px" class=""><g><g>
	<g>
		<g>
			<path d="M88,304h312c52.936,0,96-43.064,96-96c0-47.568-35.536-88.072-82.024-94.904C402.968,48.184,346.456,0,280,0     c-60.16,0-112.6,39.232-129.952,96.272c-26.728-2.344-51.504,10.264-65.904,31.816C37.4,130.112,0,168.768,0,216     C0,264.52,39.48,304,88,304z M87.688,143.992l5.536,0.04l2.312-3.992C105.544,122.744,124.112,112,144,112     c3.352,0,6.856,0.344,10.416,1.008l7.424,1.4l1.824-7.336C176.96,53.456,224.8,16,280,16c60.504,0,111.672,45.28,119.008,105.32     l0.56,4.552C399.84,129.216,400,132.584,400,136c0,66.168-53.832,120-120,120v16c74.992,0,136-61.008,136-136     c0-2.128-0.176-4.2-0.272-6.296C452.432,137.088,480,169.768,480,208c0,44.112-35.888,80-80,80H88c-39.696,0-72-32.296-72-72     C16,176.296,48.304,144,87.688,143.992z" data-original="#000000" class="active-path" data-old_color="#FBFAFA" fill="#FBFBFB"/>
			<path d="M432,360c0-22.056-17.944-40-40-40c-22.056,0-40,17.944-40,40v8h16v-8c0-13.232,10.768-24,24-24s24,10.768,24,24     s-10.768,24-24,24H24v16h368C414.056,400,432,382.056,432,360z" data-original="#000000" class="active-path" data-old_color="#FBFAFA" fill="#FBFBFB"/>
			<path d="M456,416H88v16h368c13.232,0,24,10.768,24,24s-10.768,24-24,24s-24-10.768-24-24v-8h-16v8c0,22.056,17.944,40,40,40     c22.056,0,40-17.944,40-40C496,433.944,478.056,416,456,416z" data-original="#000000" class="active-path" data-old_color="#FBFAFA" fill="#FBFBFB"/>
			<rect x="320" y="352" width="16" height="16" data-original="#000000" class="active-path" data-old_color="#FBFAFA" fill="#FBFBFB"/>
			<rect x="288" y="352" width="16" height="16" data-original="#000000" class="active-path" data-old_color="#FBFAFA" fill="#FBFBFB"/>
			<rect x="256" y="352" width="16" height="16" data-original="#000000" class="active-path" data-old_color="#FBFAFA" fill="#FBFBFB"/>
			<rect x="384" y="448" width="16" height="16" data-original="#000000" class="active-path" data-old_color="#FBFAFA" fill="#FBFBFB"/>
			<rect x="352" y="448" width="16" height="16" data-original="#000000" class="active-path" data-old_color="#FBFAFA" fill="#FBFBFB"/>
			<rect x="320" y="448" width="16" height="16" data-original="#000000" class="active-path" data-old_color="#FBFAFA" fill="#FBFBFB"/>
		</g>
	</g>
</g></g> </svg>
