<?xml version="1.0" encoding="iso-8859-1"?>
<!-- Generator: Adobe Illustrator 19.0.0, SVG Export Plug-In . SVG Version: 6.00 Build 0)  -->
<svg version="1.1" id="Layer_1" xmlns="http://www.w3.org/2000/svg" xmlns:xlink="http://www.w3.org/1999/xlink" x="0px" y="0px"
	 viewBox="0 0 496 496" style="enable-background:new 0 0 496 496;" xml:space="preserve">
<g>
	<g>
		<g>
			<path d="M413.976,169.096c-10.832-63.912-65.816-111.512-130.944-112.96C265.888,26.344,234.528,8,200,8
				c-40.936,0-77.176,26.096-90.528,64.28c-20.736-2.136-40.216,7.472-51.624,24.064C25.08,99.424,0,126.592,0,160
				c0,20.104,9.424,38.616,25.04,50.616C9.568,226.48,0,248.136,0,272c0,48.52,39.48,88,88,88v-16c-39.696,0-72-32.296-72-72
				c0-39.704,32.304-72,71.688-72.008l5.536,0.04l2.312-3.992C105.544,178.744,124.112,168,144,168
				c3.352,0,6.856,0.344,10.416,1.008l7.424,1.4l1.824-7.336C176.96,109.456,224.8,72,280,72c60.504,0,111.672,45.28,119.008,105.32
				l0.56,4.552C399.84,185.216,400,188.584,400,192c0,66.168-53.832,120-120,120v16c74.992,0,136-61.008,136-136
				c0-2.128-0.176-4.2-0.272-6.296C452.432,193.088,480,225.768,480,264c0,44.112-35.888,80-80,80h-8v16h8c52.936,0,96-43.064,96-96
				C496,216.432,460.464,175.928,413.976,169.096z M150.048,152.272c-26.72-2.328-51.504,10.264-65.904,31.816
				c-17.272,0.744-33.248,6.52-46.56,15.856C24.192,191.096,16,176.24,16,160c0-26.144,20.496-47.192,46.648-47.92l4.472-0.128
				l2.232-3.872C76.504,95.696,89.776,88,104,88c3.016,0,6.032,0.368,9.224,1.12l7.56,1.776l2-7.504
				C132.104,48.424,163.848,24,200,24c25.88,0,49.584,12.416,64.488,32.984C211,63.08,165.888,100.208,150.048,152.272z"/>
			<rect x="112" y="344" width="16" height="16"/>
			<rect x="160" y="344" width="16" height="16"/>
			<rect x="208" y="344" width="16" height="16"/>
			<rect x="256" y="344" width="16" height="16"/>
			<rect x="304" y="344" width="16" height="16"/>
			<rect x="352" y="344" width="16" height="16"/>
			<rect x="112" y="376" width="16" height="16"/>
			<rect x="160" y="376" width="16" height="16"/>
			<rect x="208" y="376" width="16" height="16"/>
			<rect x="256" y="376" width="16" height="16"/>
			<rect x="304" y="376" width="16" height="16"/>
			<rect x="352" y="376" width="16" height="16"/>
			<rect x="112" y="408" width="16" height="16"/>
			<rect x="160" y="408" width="16" height="16"/>
			<rect x="208" y="408" width="16" height="16"/>
			<rect x="256" y="408" width="16" height="16"/>
			<rect x="304" y="408" width="16" height="16"/>
			<rect x="352" y="408" width="16" height="16"/>
			<rect x="112" y="440" width="16" height="16"/>
			<rect x="160" y="440" width="16" height="16"/>
			<rect x="208" y="440" width="16" height="16"/>
			<rect x="256" y="440" width="16" height="16"/>
			<rect x="304" y="440" width="16" height="16"/>
			<rect x="352" y="440" width="16" height="16"/>
			<rect x="112" y="472" width="16" height="16"/>
			<rect x="160" y="472" width="16" height="16"/>
			<rect x="208" y="472" width="16" height="16"/>
			<rect x="256" y="472" width="16" height="16"/>
			<rect x="304" y="472" width="16" height="16"/>
			<rect x="352" y="472" width="16" height="16"/>
		</g>
	</g>
</g>
<g>
</g>
<g>
</g>
<g>
</g>
<g>
</g>
<g>
</g>
<g>
</g>
<g>
</g>
<g>
</g>
<g>
</g>
<g>
</g>
<g>
</g>
<g>
</g>
<g>
</g>
<g>
</g>
<g>
</g>
</svg>
