<?xml version="1.0" encoding="iso-8859-1"?>
<!-- Generator: Adobe Illustrator 19.0.0, SVG Export Plug-In . SVG Version: 6.00 Build 0)  -->
<svg version="1.1" id="Layer_1" xmlns="http://www.w3.org/2000/svg" xmlns:xlink="http://www.w3.org/1999/xlink" x="0px" y="0px"
	 viewBox="0 0 496 496" style="enable-background:new 0 0 496 496;" xml:space="preserve">
<g>
	<g>
		<g>
			<path d="M248,416c48.52,0,88-39.48,88-88c0-48.52-39.48-88-88-88c-48.52,0-88,39.48-88,88C160,376.52,199.48,416,248,416z
				 M248,256c39.696,0,72,32.296,72,72c0,39.704-32.304,72-72,72s-72-32.296-72-72C176,288.296,208.304,256,248,256z"/>
			<rect x="240" y="192" width="16" height="32"/>
			<rect x="171.992" y="216.101" transform="matrix(0.5 0.866 -0.866 0.5 288.0698 -50.7565)" width="31.999" height="16"/>
			<rect x="128.072" y="260.011" transform="matrix(-0.866 -0.5 0.5 -0.866 134.8327 572.1507)" width="31.999" height="16"/>
			<rect x="112" y="320" width="32" height="16"/>
			<rect x="136.077" y="371.991" transform="matrix(-0.4999 -0.8661 0.8661 -0.4999 -119.9339 706.7279)" width="16" height="32"/>
			<rect x="180.042" y="415.908" transform="matrix(-0.8661 -0.4999 0.4999 -0.8661 134.9948 899.9796)" width="16" height="32"/>
			<rect x="240" y="432" width="16" height="32"/>
			<rect x="292.02" y="423.938" transform="matrix(-0.5 -0.866 0.866 -0.5 87.9673 914.6625)" width="31.999" height="16"/>
			<rect x="335.912" y="380.029" transform="matrix(-0.866 -0.5 0.5 -0.866 462.6554 900.0299)" width="31.999" height="16"/>
			<rect x="352" y="320" width="32" height="16"/>
			<rect x="343.923" y="251.999" transform="matrix(0.4999 0.8661 -0.8661 0.4999 408.1116 -170.7675)" width="16" height="32"/>
			<rect x="291.998" y="200.072" transform="matrix(0.5 -0.866 0.866 0.5 -26.1991 370.7651)" width="31.999" height="16"/>
			<path d="M413.976,145.096C402.968,80.184,346.456,32,280,32c-60.16,0-112.6,39.232-129.952,96.272
				c-26.728-2.352-51.504,10.272-65.904,31.816C37.4,162.112,0,200.768,0,248c0,48.52,39.48,88,88,88h8v-16h-8
				c-39.696,0-72-32.296-72-72c0-39.704,32.304-72,71.688-72.008l5.536,0.04l2.312-3.992C105.544,154.744,124.112,144,144,144
				c3.352,0,6.856,0.344,10.416,1.008l7.424,1.4l1.824-7.336C176.96,85.456,224.8,48,280,48c60.504,0,111.672,45.28,119.008,105.32
				l0.792,6.496l6.52,0.512C447.64,163.56,480,198.56,480,240c0,44.112-35.888,80-80,80v16c52.936,0,96-43.064,96-96
				C496,192.432,460.464,151.928,413.976,145.096z"/>
		</g>
	</g>
</g>
<g>
</g>
<g>
</g>
<g>
</g>
<g>
</g>
<g>
</g>
<g>
</g>
<g>
</g>
<g>
</g>
<g>
</g>
<g>
</g>
<g>
</g>
<g>
</g>
<g>
</g>
<g>
</g>
<g>
</g>
</svg>
