<?xml version="1.0" encoding="iso-8859-1"?>
<!-- Generator: Adobe Illustrator 19.0.0, SVG Export Plug-In . SVG Version: 6.00 Build 0)  -->
<svg version="1.1" id="Layer_1" xmlns="http://www.w3.org/2000/svg" xmlns:xlink="http://www.w3.org/1999/xlink" x="0px" y="0px"
	 viewBox="0 0 496 496" style="enable-background:new 0 0 496 496;" xml:space="preserve">
<g>
	<g>
		<g>
			<rect x="140.947" y="415.031" transform="matrix(-0.7071 -0.7071 0.7071 -0.7071 -53.3439 847.9655)" width="16" height="40"/>
			<rect x="240" y="456" width="16" height="40"/>
			<rect x="326.952" y="427.016" transform="matrix(-0.7071 -0.7071 0.7071 -0.7071 284.6815 987.9498)" width="40" height="16"/>
			
				<rect x="286.469" y="449.926" transform="matrix(-0.3828 -0.9238 0.9238 -0.3828 -10.3185 908.9583)" width="23.999" height="16"/>
			
				<rect x="357.926" y="378.537" transform="matrix(-0.9238 -0.3828 0.3828 -0.9238 563.7031 885.2413)" width="23.999" height="16"/>
			<rect x="112.858" y="378.49" transform="matrix(0.9238 -0.3828 0.3828 0.9238 -138.4418 77.237)" width="23.999" height="16"/>
			<rect x="189.45" y="445.911" transform="matrix(-0.9238 -0.3828 0.3828 -0.9238 204.5677 956.527)" width="16" height="23.999"/>
			<path d="M413.968,161.096C403.136,97.184,348.16,49.584,283.024,48.136C265.888,18.344,234.528,0,200,0
				c-40.936,0-77.176,26.096-90.528,64.28c-20.6-2.096-40.2,7.464-51.616,24.064C25.08,91.424,0,118.592,0,152
				c0,20.104,9.424,38.616,25.04,50.616C9.568,218.48,0,240.136,0,264c0,48.52,39.48,88,88,88h57.4c7.784,49.896,51.44,88,102.6,88
				c51.16,0,94.816-38.104,102.6-88H400c52.936,0,96-43.064,96-96C496,208.432,460.464,167.928,413.968,161.096z M16,152
				c0-26.144,20.496-47.192,46.648-47.92l4.472-0.128l2.232-3.872C76.504,87.696,89.776,80,104,80c3.016,0,6.032,0.368,9.224,1.12
				l7.56,1.776l1.992-7.504C132.104,40.424,163.848,16,200,16c25.88,0,49.584,12.416,64.496,32.984
				c-53.496,6.096-98.6,43.224-114.44,95.288C148.008,144.096,145.984,144,144,144c-24.032,0-46.552,12.176-59.856,32.088
				c-17.272,0.744-33.248,6.52-46.552,15.856C24.2,183.096,16,168.24,16,152z M248,424c-42.456,0-78.856-30.992-86.448-72h172.896
				C326.856,393.008,290.456,424,248,424z M400,336H88c-39.704,0-72-32.296-72-72c0-39.704,32.296-72,71.688-72.008l5.528,0.04
				l2.312-3.992C105.544,170.744,124.12,160,144,160c3.352,0,6.856,0.344,10.424,1.008l7.424,1.4l1.824-7.336
				C176.96,101.456,224.808,64,280,64c60.512,0,111.672,45.28,119.008,105.32l0.56,4.592C399.84,177.24,400,180.6,400,184
				c0,66.168-53.832,120-120,120v16c74.992,0,136-61.008,136-136c0-2.128-0.176-4.2-0.272-6.296
				C452.432,185.088,480,217.776,480,256C480,300.112,444.112,336,400,336z"/>
		</g>
	</g>
</g>
<g>
</g>
<g>
</g>
<g>
</g>
<g>
</g>
<g>
</g>
<g>
</g>
<g>
</g>
<g>
</g>
<g>
</g>
<g>
</g>
<g>
</g>
<g>
</g>
<g>
</g>
<g>
</g>
<g>
</g>
</svg>
