<?xml version="1.0" encoding="iso-8859-1"?>
<!-- Generator: Adobe Illustrator 19.0.0, SVG Export Plug-In . SVG Version: 6.00 Build 0)  -->
<svg version="1.1" id="Layer_1" xmlns="http://www.w3.org/2000/svg" xmlns:xlink="http://www.w3.org/1999/xlink" x="0px" y="0px"
	 viewBox="0 0 496 496" style="enable-background:new 0 0 496 496;" xml:space="preserve">
<g>
	<g>
		<g>
			<path d="M448,448c-16.68,0-31.392,8.544-40,21.496C399.392,456.544,384.68,448,368,448s-31.392,8.544-40,21.496
				C319.392,456.544,304.68,448,288,448s-31.392,8.544-40,21.496C239.392,456.544,224.68,448,208,448s-31.392,8.544-40,21.496
				C159.392,456.544,144.68,448,128,448s-31.392,8.544-40,21.496C79.392,456.544,64.68,448,48,448c-26.472,0-48,21.528-48,48h16
				c0-17.648,14.352-32,32-32s32,14.352,32,32h16c0-17.648,14.352-32,32-32s32,14.352,32,32h16c0-17.648,14.352-32,32-32
				s32,14.352,32,32h16c0-17.648,14.352-32,32-32s32,14.352,32,32h16c0-17.648,14.352-32,32-32s32,14.352,32,32h16
				c0-17.648,14.352-32,32-32s32,14.352,32,32h16C496,469.528,474.472,448,448,448z"/>
			<path d="M448,405.496C439.392,392.544,424.68,384,408,384s-31.392,8.544-40,21.496C359.392,392.544,344.68,384,328,384
				s-31.392,8.544-40,21.496C279.392,392.544,264.68,384,248,384s-31.392,8.544-40,21.496C199.392,392.544,184.68,384,168,384
				s-31.392,8.544-40,21.496C119.392,392.544,104.68,384,88,384s-31.392,8.544-40,21.496C39.392,392.544,24.68,384,8,384H0v16h8
				c17.648,0,32,14.352,32,32h16c0-17.648,14.352-32,32-32s32,14.352,32,32h16c0-17.648,14.352-32,32-32s32,14.352,32,32h16
				c0-17.648,14.352-32,32-32s32,14.352,32,32h16c0-17.648,14.352-32,32-32s32,14.352,32,32h16c0-17.648,14.352-32,32-32
				s32,14.352,32,32h16c0-17.648,14.352-32,32-32h8v-16h-8C471.32,384,456.608,392.544,448,405.496z"/>
			<path d="M448,320c-16.68,0-31.392,8.544-40,21.496c-3.392-5.104-7.76-9.48-12.792-12.96C408.768,303.792,416,276.056,416,248
				c0-92.64-75.368-168-168-168S80,155.36,80,248c0,28.056,7.232,55.792,20.792,80.528c-5.032,3.48-9.4,7.864-12.792,12.96
				C79.392,328.544,64.68,320,48,320c-26.472,0-48,21.528-48,48h16c0-17.648,14.352-32,32-32s32,14.352,32,32h16
				c0-17.648,14.352-32,32-32s32,14.352,32,32h16c0-17.648,14.352-32,32-32s32,14.352,32,32h16c0-17.648,14.352-32,32-32
				s32,14.352,32,32h16c0-17.648,14.352-32,32-32s32,14.352,32,32h16c0-17.648,14.352-32,32-32s32,14.352,32,32h16
				C496,341.528,474.472,320,448,320z M380.704,321.744C376.656,320.632,372.4,320,368,320c-16.68,0-31.392,8.544-40,21.496
				C319.392,328.544,304.68,320,288,320s-31.392,8.544-40,21.496C239.392,328.544,224.68,320,208,320s-31.392,8.544-40,21.496
				C159.392,328.544,144.68,320,128,320c-4.4,0-8.656,0.632-12.704,1.744C102.696,299.128,96,273.712,96,248
				c0-83.816,68.184-152,152-152s152,68.184,152,152C400,273.712,393.304,299.128,380.704,321.744z"/>
			<rect y="240" width="64" height="16"/>
			
				<rect x="427.054" y="107.987" transform="matrix(0.4999 0.8661 -0.8661 0.4999 338.8137 -306.7861)" width="16" height="64.001"/>
			<rect x="347.989" y="28.928" transform="matrix(0.8661 0.4999 -0.4999 0.8661 78.1294 -169.7974)" width="16" height="64.001"/>
			<rect x="240" width="16" height="64"/>
			<rect x="107.997" y="52.939" transform="matrix(0.5 0.866 -0.866 0.5 122.7704 -90.7706)" width="63.999" height="16"/>
			<rect x="28.933" y="131.998" transform="matrix(0.866 0.5 -0.5 0.866 78.164 -11.7097)" width="63.999" height="16"/>
			<rect x="432" y="232" width="64" height="16"/>
		</g>
	</g>
</g>
<g>
</g>
<g>
</g>
<g>
</g>
<g>
</g>
<g>
</g>
<g>
</g>
<g>
</g>
<g>
</g>
<g>
</g>
<g>
</g>
<g>
</g>
<g>
</g>
<g>
</g>
<g>
</g>
<g>
</g>
</svg>
