<?xml version="1.0" encoding="iso-8859-1"?>
<!-- Generator: Adobe Illustrator 19.0.0, SVG Export Plug-In . SVG Version: 6.00 Build 0)  -->
<svg version="1.1" id="Layer_1" xmlns="http://www.w3.org/2000/svg" xmlns:xlink="http://www.w3.org/1999/xlink" x="0px" y="0px"
	 viewBox="0 0 496 496" style="enable-background:new 0 0 496 496;" xml:space="preserve">
<g>
	<g>
		<g>
			<path style="fill:white" d="M413.968,113.096C402.968,48.184,346.464,0,280,0c-60.16,0-112.592,39.232-129.944,96.272
				C148.008,96.096,145.984,96,144,96c-24.032,0-46.552,12.176-59.856,32.088C37.4,130.112,0,168.776,0,216c0,48.52,39.48,88,88,88
				h61.144c-3.392,10.352-5.144,21.064-5.144,32c0,57.344,46.656,104,104,104s104-46.656,104-104c0-10.936-1.752-21.648-5.144-32
				H400c52.936,0,96-43.064,96-96C496,160.432,460.464,119.928,413.968,113.096z M248,424c-48.52,0-88-39.48-88-88
				c0-10.992,2.176-21.72,6.232-32h163.544c4.048,10.28,6.224,21.008,6.224,32C336,384.52,296.52,424,248,424z M400,288H88
				c-39.704,0-72-32.296-72-72c0-39.704,32.296-72,71.688-72.008l5.528,0.04l2.312-3.992C105.544,122.744,124.12,112,144,112
				c3.352,0,6.856,0.344,10.424,1.008l7.424,1.4l1.824-7.336C176.96,53.456,224.808,16,280,16
				c60.512,0,111.672,45.28,119.008,105.32l0.56,4.592C399.84,129.24,400,132.6,400,136c0,66.168-53.832,120-120,120v16
				c74.992,0,136-61.008,136-136c0-2.128-0.176-4.2-0.272-6.296C452.432,137.088,480,169.776,480,208
				C480,252.112,444.112,288,400,288z"/>
			<rect style="fill:white" x="368" y="328" width="40" height="16"/>
			<rect style="fill:white" x="140.947" y="415.031" transform="matrix(-0.7071 -0.7071 0.7071 -0.7071 -53.3439 847.9655)" width="16" height="40"/>
			<rect style="fill:white" x="240" y="456" width="16" height="40"/>
			<rect style="fill:white" x="326.952" y="427.016" transform="matrix(-0.7071 -0.7071 0.7071 -0.7071 284.6815 987.9498)" width="40" height="16"/>

				<rect style="fill:white" x="286.469" y="449.926" transform="matrix(-0.3828 -0.9238 0.9238 -0.3828 -10.3185 908.9583)" width="23.999" height="16"/>

				<rect style="fill:white" x="357.926" y="378.537" transform="matrix(-0.9238 -0.3828 0.3828 -0.9238 563.7031 885.2413)" width="23.999" height="16"/>
			<rect style="fill:white" x="88" y="328" width="40" height="16"/>
			<rect style="fill:white" x="112.858" y="378.49" transform="matrix(0.9238 -0.3828 0.3828 0.9238 -138.4418 77.237)" width="23.999" height="16"/>
			<rect style="fill:white" x="189.45" y="445.911" transform="matrix(-0.9238 -0.3828 0.3828 -0.9238 204.5677 956.527)" width="16" height="23.999"/>
		</g>
	</g>
</g>
<g>
</g>
<g>
</g>
<g>
</g>
<g>
</g>
<g>
</g>
<g>
</g>
<g>
</g>
<g>
</g>
<g>
</g>
<g>
</g>
<g>
</g>
<g>
</g>
<g>
</g>
<g>
</g>
<g>
</g>
</svg>
