<?xml version="1.0"?>
<svg xmlns="http://www.w3.org/2000/svg" xmlns:xlink="http://www.w3.org/1999/xlink" version="1.1" id="Layer_1" x="0px" y="0px" viewBox="0 0 496 496" style="enable-background:new 0 0 496 496;" xml:space="preserve" width="512px" height="512px" class=""><g><g>
	<g>
		<g>
			<path d="M413.968,209.096C402.968,144.184,346.464,96,280,96c-12.056,0-23.776,1.64-34.992,4.624     C225.504,72.664,194.272,56,160,56c-57.344,0-104,46.656-104,104c0,23.72,7.968,46.264,22.576,64.6     C34.48,229.336,0,266.672,0,312c0,48.52,39.48,88,88,88v-16c-39.704,0-72-32.304-72-72s32.296-72,71.688-72.008l5.536,0.04     l2.304-3.992C105.536,218.744,124.12,208,144,208c3.352,0,6.856,0.336,10.424,1.008l7.424,1.4l1.824-7.336     C176.96,149.448,224.8,112,280,112c60.512,0,111.672,45.28,119.008,105.32l0.56,4.592C399.84,225.24,400,228.6,400,232     c0,66.168-53.832,120-120,120v16c74.992,0,136-61.008,136-136c0-2.12-0.176-4.2-0.272-6.296C452.432,233.088,480,265.768,480,304     c0,44.112-35.888,80-80,80v16c52.936,0,96-43.064,96-96C496,256.424,460.464,215.928,413.968,209.096z M150.056,192.272     C148.008,192.088,145.984,192,144,192c-20.12,0-39.104,8.624-52.584,23.08C78.848,199.496,72,180.248,72,160     c0-48.52,39.48-88,88-88c27.4,0,52.568,12.536,69.192,33.896C191.816,120.952,162.248,152.176,150.056,192.272z" data-original="#000000" class="active-path" data-old_color="#FBFBFB" fill="#FDFDFD"/>
			<rect y="152" width="40" height="16" data-original="#000000" class="active-path" data-old_color="#FBFBFB" fill="#FDFDFD"/>
			<rect x="250.994" y="41.046" transform="matrix(0.7071 0.7071 -0.7071 0.7071 119.0232 -165.2563)" width="16" height="40" data-original="#000000" class="active-path" data-old_color="#FBFBFB" fill="#FDFDFD"/>
			<rect x="152" width="16" height="40" data-original="#000000" class="active-path" data-old_color="#FBFBFB" fill="#FDFDFD"/>
			
				<rect x="41.007" y="52.995" transform="matrix(0.7072 0.7071 -0.7071 0.7072 60.9932 -25.2743)" width="40.002" height="16.001" data-original="#000000" class="active-path" data-old_color="#FBFBFB" fill="#FDFDFD"/>
			<rect x="97.483" y="30.045" transform="matrix(0.3828 0.9238 -0.9238 0.3828 102.718 -77.6621)" width="23.999" height="16" data-original="#000000" class="active-path" data-old_color="#FBFBFB" fill="#FDFDFD"/>
			<rect x="26.089" y="101.491" transform="matrix(0.9239 0.3827 -0.3827 0.9239 44.8006 -6.2418)" width="24.001" height="16" data-original="#000000" class="active-path" data-old_color="#FBFBFB" fill="#FDFDFD"/>
			
				<rect x="30.026" y="198.507" transform="matrix(-0.3828 -0.9238 0.9238 -0.3828 -141.8889 326.2196)" width="16" height="23.999" data-original="#000000" class="active-path" data-old_color="#FBFBFB" fill="#FDFDFD"/>
			<rect x="202.514" y="26.054" transform="matrix(0.9238 0.3828 -0.3828 0.9238 30.603 -77.6883)" width="16" height="23.999" data-original="#000000" class="active-path" data-old_color="#FBFBFB" fill="#FDFDFD"/>
			<rect x="352" y="464" width="16" height="32" data-original="#000000" class="active-path" data-old_color="#FBFBFB" fill="#FDFDFD"/>
			<rect x="352" y="416" width="16" height="32" data-original="#000000" class="active-path" data-old_color="#FBFBFB" fill="#FDFDFD"/>
			<rect x="352" y="368" width="16" height="32" data-original="#000000" class="active-path" data-old_color="#FBFBFB" fill="#FDFDFD"/>
			<rect x="304" y="440" width="16" height="32" data-original="#000000" class="active-path" data-old_color="#FBFBFB" fill="#FDFDFD"/>
			<rect x="304" y="392" width="16" height="32" data-original="#000000" class="active-path" data-old_color="#FBFBFB" fill="#FDFDFD"/>
			<rect x="256" y="464" width="16" height="32" data-original="#000000" class="active-path" data-old_color="#FBFBFB" fill="#FDFDFD"/>
			<rect x="256" y="416" width="16" height="32" data-original="#000000" class="active-path" data-old_color="#FBFBFB" fill="#FDFDFD"/>
			<rect x="256" y="368" width="16" height="32" data-original="#000000" class="active-path" data-old_color="#FBFBFB" fill="#FDFDFD"/>
			<rect x="208" y="440" width="16" height="32" data-original="#000000" class="active-path" data-old_color="#FBFBFB" fill="#FDFDFD"/>
			<rect x="208" y="392" width="16" height="32" data-original="#000000" class="active-path" data-old_color="#FBFBFB" fill="#FDFDFD"/>
			<rect x="160" y="464" width="16" height="32" data-original="#000000" class="active-path" data-old_color="#FBFBFB" fill="#FDFDFD"/>
			<rect x="160" y="416" width="16" height="32" data-original="#000000" class="active-path" data-old_color="#FBFBFB" fill="#FDFDFD"/>
			<rect x="160" y="368" width="16" height="32" data-original="#000000" class="active-path" data-old_color="#FBFBFB" fill="#FDFDFD"/>
			<rect x="112" y="440" width="16" height="32" data-original="#000000" class="active-path" data-old_color="#FBFBFB" fill="#FDFDFD"/>
			<rect x="112" y="392" width="16" height="32" data-original="#000000" class="active-path" data-old_color="#FBFBFB" fill="#FDFDFD"/>
		</g>
	</g>
</g></g> </svg>
