<?xml version="1.0"?>
<svg xmlns="http://www.w3.org/2000/svg" xmlns:xlink="http://www.w3.org/1999/xlink" version="1.1" id="Layer_1" x="0px" y="0px" viewBox="0 0 496 496" style="enable-background:new 0 0 496 496;" xml:space="preserve" width="512px" height="512px" class=""><g><g>
	<g>
		<g>
			<path d="M413.968,257.096C402.968,192.184,346.464,144,280,144c-12.056,0-23.776,1.64-34.992,4.624     C225.504,120.664,194.272,104,160,104c-57.344,0-104,46.656-104,104c0,23.72,7.968,46.264,22.576,64.6     C34.48,277.336,0,314.672,0,360c0,48.52,39.48,88,88,88h312c52.936,0,96-43.064,96-96     C496,304.424,460.464,263.928,413.968,257.096z M72,208c0-48.52,39.48-88,88-88c27.4,0,52.568,12.536,69.192,33.896     c-37.368,15.056-66.944,46.28-79.136,86.376C148.008,240.088,145.984,240,144,240c-20.12,0-39.104,8.624-52.584,23.08     C78.848,247.496,72,228.248,72,208z M400,432H88c-39.704,0-72-32.304-72-72s32.296-72,71.688-72.008l5.536,0.04l2.304-3.992     C105.536,266.744,124.12,256,144,256c3.352,0,6.856,0.336,10.424,1.008l7.424,1.4l1.824-7.336C176.96,197.448,224.8,160,280,160     c60.512,0,111.672,45.28,119.008,105.32l0.56,4.592C399.84,273.24,400,276.6,400,280c0,66.168-53.832,120-120,120v16     c74.992,0,136-61.008,136-136c0-2.12-0.176-4.2-0.272-6.296C452.432,281.088,480,313.768,480,352     C480,396.112,444.112,432,400,432z" data-original="#000000" class="active-path" data-old_color="#FBF8F8" fill="#FDFBFB"/>
			<rect y="200" width="40" height="16" data-original="#000000" class="active-path" data-old_color="#FBF8F8" fill="#FDFBFB"/>
			<rect x="250.99" y="89.01" transform="matrix(0.7071 0.7071 -0.7071 0.7071 152.9384 -151.2055)" width="16" height="40" data-original="#000000" class="active-path" data-old_color="#FBF8F8" fill="#FDFBFB"/>
			<rect x="152" y="48" width="16" height="40" data-original="#000000" class="active-path" data-old_color="#FBF8F8" fill="#FDFBFB"/>
			
				<rect x="40.98" y="100.971" transform="matrix(0.7072 0.7071 -0.7071 0.7072 94.9074 -11.2058)" width="40.002" height="16.001" data-original="#000000" class="active-path" data-old_color="#FBF8F8" fill="#FDFBFB"/>
			<rect x="97.481" y="78.043" transform="matrix(0.3828 0.9238 -0.9238 0.3828 147.0594 -48.0366)" width="23.999" height="16" data-original="#000000" class="active-path" data-old_color="#FBF8F8" fill="#FDFBFB"/>
			<rect x="26.082" y="149.521" transform="matrix(0.9239 0.3827 -0.3827 0.9239 63.1808 -2.5828)" width="24.001" height="16" data-original="#000000" class="active-path" data-old_color="#FBF8F8" fill="#FDFBFB"/>
			
				<rect x="30.028" y="246.475" transform="matrix(-0.3828 -0.9238 0.9238 -0.3828 -186.2008 392.5536)" width="16" height="23.999" data-original="#000000" class="active-path" data-old_color="#FBF8F8" fill="#FDFBFB"/>
			<rect x="202.512" y="74.053" transform="matrix(0.9238 0.3828 -0.3828 0.9238 48.9774 -74.0317)" width="16" height="23.999" data-original="#000000" class="active-path" data-old_color="#FBF8F8" fill="#FDFBFB"/>
		</g>
	</g>
</g></g> </svg>
