<?xml version="1.0" encoding="iso-8859-1"?>
<!-- Generator: Adobe Illustrator 19.0.0, SVG Export Plug-In . SVG Version: 6.00 Build 0)  -->
<svg version="1.1" id="Layer_1" xmlns="http://www.w3.org/2000/svg" xmlns:xlink="http://www.w3.org/1999/xlink" x="0px" y="0px"
	 viewBox="0 0 496 496" style="enable-background:new 0 0 496 496;" xml:space="preserve">
<g>
	<g>
		<g>
			<path d="M413.976,169.096C402.968,104.184,346.456,56,280,56c-60.16,0-112.6,39.232-129.952,96.272
				c-26.72-2.328-51.504,10.264-65.904,31.816C37.4,186.112,0,224.768,0,272c0,48.52,39.48,88,88,88h58.904
				c10.88,45.792,52.016,80,101.096,80s90.216-34.208,101.096-80H400c52.936,0,96-43.064,96-96
				C496,216.432,460.464,175.928,413.976,169.096z M248,424c-48.52,0-88-39.48-88-88c0-48.52,39.48-88,88-88s88,39.48,88,88
				C336,384.52,296.52,424,248,424z M248,232c-57.344,0-104,46.656-104,104c0,2.704,0.2,5.352,0.408,8H88c-39.696,0-72-32.296-72-72
				c0-39.704,32.304-72,71.688-72.008l5.536,0.04l2.312-3.992C105.544,178.744,124.112,168,144,168
				c3.352,0,6.856,0.344,10.416,1.008l7.424,1.4l1.824-7.336C176.96,109.456,224.8,72,280,72c60.504,0,111.672,45.28,119.008,105.32
				l0.56,4.552C399.84,185.216,400,188.584,400,192c0,41.848-21.616,80.264-56.896,102.08C326.944,257.568,290.432,232,248,232z
				 M400,344h-48.408c0.208-2.648,0.408-5.296,0.408-8c0-9.184-1.312-18.048-3.56-26.544C390.216,285.096,416,240.624,416,192
				c0-2.128-0.176-4.2-0.272-6.296C452.432,193.088,480,225.768,480,264C480,308.112,444.112,344,400,344z"/>
			<path d="M264,320c13.232,0,24,10.768,24,24h16c0-22.056-17.944-40-40-40c-22.056,0-40,17.944-40,40v16c0,22.056,17.944,40,40,40
				c22.056,0,40-17.944,40-40h-16c0,13.232-10.768,24-24,24s-24-10.768-24-24v-16C240,330.768,250.768,320,264,320z"/>
			<path d="M240,296c0-13.232-10.768-24-24-24s-24,10.768-24,24s10.768,24,24,24S240,309.232,240,296z M216,304
				c-4.408,0-8-3.584-8-8c0-4.416,3.592-8,8-8s8,3.584,8,8C224,300.416,220.408,304,216,304z"/>
		</g>
	</g>
</g>
<g>
</g>
<g>
</g>
<g>
</g>
<g>
</g>
<g>
</g>
<g>
</g>
<g>
</g>
<g>
</g>
<g>
</g>
<g>
</g>
<g>
</g>
<g>
</g>
<g>
</g>
<g>
</g>
<g>
</g>
</svg>
