<?xml version="1.0" encoding="iso-8859-1"?>
<!-- Generator: Adobe Illustrator 19.0.0, SVG Export Plug-In . SVG Version: 6.00 Build 0)  -->
<svg version="1.1" id="Layer_1" xmlns="http://www.w3.org/2000/svg" xmlns:xlink="http://www.w3.org/1999/xlink" x="0px" y="0px"
	 viewBox="0 0 496 496" style="enable-background:new 0 0 496 496;" xml:space="preserve">
<g>
	<g>
		<g>
			<path d="M413.968,113.096C402.968,48.184,346.464,0,280,0c-60.16,0-112.592,39.232-129.944,96.272
				C148.008,96.096,145.984,96,144,96c-24.032,0-46.552,12.176-59.856,32.088C37.4,130.112,0,168.776,0,216c0,48.52,39.48,88,88,88
				h112v48.008c-20.296,15.224-32.176,39.048-32,64.568c0.304,42.6,35.176,78.208,77.736,79.392
				c0.768,0.016,1.528,0.032,2.296,0.032c20.96,0,40.68-7.992,55.744-22.648C319.4,458.168,328,437.792,328,416
				c0-25.288-11.88-48.896-32-63.992V304h104c52.936,0,96-43.064,96-96C496,160.432,460.464,119.928,413.968,113.096z M312,416
				c0,17.432-6.88,33.728-19.384,45.88c-12.496,12.16-28.816,18.784-46.448,18.088c-34.04-0.936-61.928-29.432-62.168-63.504
				c-0.16-21.584,10.488-41.648,28.456-53.68l3.544-2.368V184c0-17.648,14.352-32,32-32s32,14.352,32,32v72v16v88.416l3.544,2.376
				C301.368,374.72,312,394.608,312,416z M248,136c-26.472,0-48,21.528-48,48v104H88c-39.704,0-72-32.296-72-72
				c0-39.704,32.296-72,71.688-72.008l5.528,0.04l2.312-3.992C105.544,122.744,124.12,112,144,112c3.352,0,6.856,0.344,10.424,1.008
				l7.424,1.4l1.824-7.336C176.96,53.456,224.808,16,280,16c60.512,0,111.672,45.28,119.008,105.32l0.56,4.592
				C399.84,129.24,400,132.6,400,136c0,60.736-45.384,110.944-104,118.808V184C296,157.528,274.472,136,248,136z M400,288H296
				v-17.024c67.464-7.96,120-65.408,120-134.976c0-2.128-0.176-4.2-0.272-6.296C452.432,137.088,480,169.776,480,208
				C480,252.112,444.112,288,400,288z"/>
			<path d="M256,368.72V216h-16v152.72c-22.664,3.824-40,23.536-40,47.28c0,26.472,21.528,48,48,48s48-21.528,48-48
				C296,392.264,278.664,372.552,256,368.72z M248,448c-17.648,0-32-14.352-32-32s14.352-32,32-32s32,14.352,32,32
				S265.648,448,248,448z"/>
			<rect x="240" y="184" width="16" height="16"/>
		</g>
	</g>
</g>
<g>
</g>
<g>
</g>
<g>
</g>
<g>
</g>
<g>
</g>
<g>
</g>
<g>
</g>
<g>
</g>
<g>
</g>
<g>
</g>
<g>
</g>
<g>
</g>
<g>
</g>
<g>
</g>
<g>
</g>
</svg>
