<?xml version="1.0" encoding="iso-8859-1"?>
<!-- Generator: Adobe Illustrator 19.0.0, SVG Export Plug-In . SVG Version: 6.00 Build 0)  -->
<svg version="1.1" id="Layer_1" xmlns="http://www.w3.org/2000/svg" xmlns:xlink="http://www.w3.org/1999/xlink" x="0px" y="0px"
	 viewBox="0 0 496.008 496.008" style="enable-background:new 0 0 496.008 496.008;" xml:space="preserve">
<g>
	<g>
		<g>
			<path d="M304.002,304.464V288h-16v25.56l3.992,2.312c27.144,15.728,44.008,44.896,44.008,76.128
				c0,24.144-9.584,46.664-26.984,63.408c-17.392,16.744-40.224,25.552-64.472,24.528c-45.56-1.736-83.48-40.264-84.52-85.864
				c-0.736-32.088,16.12-62.048,43.984-78.192l3.992-2.32V56c0-22.056,17.944-40,40-40c22.056,0,40,17.944,40,40v56h16V56
				c0-30.88-25.12-56-56-56s-56,25.12-56,56v248.456c-30.536,19.552-48.808,53.608-47.968,89.976
				c1.232,53.904,46.048,99.432,99.904,101.496c1.368,0.048,2.736,0.08,4.104,0.08c27.048,0,52.504-10.24,72.072-29.072
				c20.56-19.792,31.888-46.408,31.888-74.936C352.002,356.64,333.722,323.512,304.002,304.464z"/>
			<path d="M224.002,96v228.176c-28.552,10.064-48,37.12-48,67.824c0,39.696,32.304,72,72,72s72-32.304,72-72
				c0-30.704-19.448-57.76-48-67.824V96H224.002z M304.002,392c0,30.88-25.12,56-56,56s-56-25.12-56-56
				c0-25.512,17.272-47.784,42-54.16l6-1.544V112h16v224.296l6,1.544C286.73,344.216,304.002,366.488,304.002,392z"/>
			<rect x="288.002" y="256" width="48" height="16"/>
			<rect x="288.002" y="224" width="48" height="16"/>
			<rect x="288.002" y="192" width="48" height="16"/>
			<rect x="288.002" y="160" width="48" height="16"/>
			<rect x="288.002" y="128" width="48" height="16"/>
		</g>
	</g>
</g>
<g>
</g>
<g>
</g>
<g>
</g>
<g>
</g>
<g>
</g>
<g>
</g>
<g>
</g>
<g>
</g>
<g>
</g>
<g>
</g>
<g>
</g>
<g>
</g>
<g>
</g>
<g>
</g>
<g>
</g>
</svg>
