<?xml version="1.0" encoding="iso-8859-1"?>
<!-- Generator: Adobe Illustrator 19.0.0, SVG Export Plug-In . SVG Version: 6.00 Build 0)  -->
<svg version="1.1" id="Layer_1" xmlns="http://www.w3.org/2000/svg" xmlns:xlink="http://www.w3.org/1999/xlink" x="0px" y="0px"
	 viewBox="0 0 496.008 496.008" style="enable-background:new 0 0 496.008 496.008;" xml:space="preserve">
<g>
	<g>
		<g>
			<path d="M376.004,304.464V288h-16v25.56l3.992,2.312C391.14,331.6,408.004,360.768,408.004,392
				c0,24.144-9.584,46.664-26.984,63.408c-17.392,16.744-40.224,25.512-64.472,24.528c-45.56-1.736-83.48-40.264-84.52-85.864
				c-0.736-32.088,16.12-62.048,43.984-78.192l3.992-2.32V56c0-22.056,17.944-40,40-40c22.056,0,40,17.944,40,40v56h16V56
				c0-30.88-25.12-56-56-56s-56,25.12-56,56v248.456c-30.536,19.552-48.808,53.608-47.968,89.976
				c1.232,53.904,46.048,99.432,99.904,101.496c1.368,0.048,2.736,0.08,4.104,0.08c27.048,0,52.504-10.24,72.072-29.072
				c20.56-19.792,31.888-46.408,31.888-74.936C424.004,356.64,405.724,323.512,376.004,304.464z"/>
			<path d="M296.004,256v68.176c-28.552,10.064-48,37.12-48,67.824c0,39.696,32.304,72,72,72s72-32.304,72-72
				c0-30.704-19.448-57.76-48-67.824V256H296.004z M376.004,392c0,30.88-25.12,56-56,56s-56-25.12-56-56
				c0-25.512,17.272-47.784,42-54.16l6-1.544V272h16v64.296l6,1.544C358.732,344.216,376.004,366.488,376.004,392z"/>
			<rect x="360.004" y="256" width="48" height="16"/>
			<rect x="360.004" y="224" width="48" height="16"/>
			<rect x="360.004" y="192" width="48" height="16"/>
			<rect x="360.004" y="160" width="48" height="16"/>
			<rect x="360.004" y="128" width="48" height="16"/>
			<polygon points="226.756,157.224 228.668,141.336 192.932,137.032 173.86,104 212.004,104 233.604,132.8 246.404,123.2 
				232.004,104 248.004,104 248.004,88 232.004,88 246.404,68.8 233.604,59.2 212.004,88 173.86,88 192.932,54.968 228.668,50.664 
				226.756,34.776 202.932,37.648 210.932,23.792 197.076,15.792 189.076,29.648 179.652,7.576 164.94,13.856 179.076,46.968 
				160.004,80 140.932,46.968 155.068,13.856 140.356,7.576 130.932,29.648 122.932,15.792 109.076,23.792 117.076,37.648 
				93.252,34.776 91.34,50.664 127.076,54.968 146.148,88 108.004,88 86.404,59.2 73.604,68.8 88.004,88 72.004,88 72.004,104 
				88.004,104 73.604,123.2 86.404,132.8 108.004,104 146.148,104 127.076,137.032 91.34,141.336 93.252,157.224 117.076,154.352 
				109.076,168.208 122.932,176.208 130.932,162.352 140.356,184.424 155.068,178.144 140.932,145.032 160.004,112 179.076,145.032 
				164.94,178.144 179.652,184.424 189.076,162.352 197.076,176.208 210.932,168.208 202.932,154.352 			"/>
		</g>
	</g>
</g>
<g>
</g>
<g>
</g>
<g>
</g>
<g>
</g>
<g>
</g>
<g>
</g>
<g>
</g>
<g>
</g>
<g>
</g>
<g>
</g>
<g>
</g>
<g>
</g>
<g>
</g>
<g>
</g>
<g>
</g>
</svg>
