<?xml version="1.0" encoding="iso-8859-1"?>
<!-- Generator: Adobe Illustrator 19.0.0, SVG Export Plug-In . SVG Version: 6.00 Build 0)  -->
<svg version="1.1" id="Layer_1" xmlns="http://www.w3.org/2000/svg" xmlns:xlink="http://www.w3.org/1999/xlink" x="0px" y="0px"
	 viewBox="0 0 496.008 496.008" style="enable-background:new 0 0 496.008 496.008;" xml:space="preserve">
<g>
	<g>
		<g>
			<path d="M376.004,304.464V288h-16v25.56l3.992,2.312C391.14,331.6,408.004,360.768,408.004,392
				c0,24.144-9.576,46.664-26.976,63.408c-17.392,16.744-40.264,25.512-64.48,24.528c-45.56-1.736-83.48-40.264-84.52-85.864
				c-0.736-32.096,16.12-62.056,43.984-78.192l3.992-2.32V56c0-22.056,17.944-40,40-40c22.056,0,40,17.944,40,40v56h16V56
				c0-30.88-25.128-56-56-56s-56,25.12-56,56v248.456c-30.528,19.552-48.816,53.6-47.976,89.976
				c1.24,53.904,46.064,99.432,99.912,101.496c1.376,0.048,2.744,0.08,4.104,0.08c27.056,0,52.512-10.24,72.08-29.072
				c20.56-19.792,31.88-46.408,31.88-74.936C424.004,356.64,405.724,323.512,376.004,304.464z"/>
			<path d="M320.004,32c-13.232,0-24,10.768-24,24v268.168c-33.24,11.632-53.152,45.344-46.832,80.944
				c5.112,28.792,27.784,51.888,56.416,57.48c4.768,0.928,9.544,1.384,14.288,1.384c16.712,0,32.896-5.68,45.88-16.384
				c16.68-13.736,26.248-34,26.248-55.592c0-30.704-19.448-57.752-48-67.824V56C344.004,42.768,333.236,32,320.004,32z M376.004,392
				c0,16.792-7.448,32.56-20.424,43.248s-30.08,14.936-46.936,11.648c-22.192-4.328-39.768-22.24-43.728-44.568
				c-5.2-29.376,12.456-57.096,41.088-64.48l6-1.552V56c0-4.408,3.584-8,8-8s8,3.592,8,8v280.296l6,1.544
				C358.732,344.216,376.004,366.488,376.004,392z"/>
			<rect x="360.004" y="256" width="48" height="16"/>
			<rect x="360.004" y="224" width="48" height="16"/>
			<rect x="360.004" y="192" width="48" height="16"/>
			<rect x="360.004" y="160" width="48" height="16"/>
			<rect x="360.004" y="128" width="48" height="16"/>
			<path d="M160.004,40c-26.472,0-48,21.528-48,48s21.528,48,48,48s48-21.528,48-48S186.476,40,160.004,40z M160.004,120
				c-17.648,0-32-14.352-32-32s14.352-32,32-32s32,14.352,32,32S177.652,120,160.004,120z"/>
			<rect x="152.004" width="16" height="24"/>
			<rect x="94.259" y="26.257" transform="matrix(0.707 0.7072 -0.7072 0.707 55.3593 -65.1097)" width="24" height="16"/>
			<rect x="72.004" y="80" width="24" height="16"/>
			<rect x="98.263" y="129.741" transform="matrix(-0.7071 -0.7071 0.7071 -0.7071 81.1768 317.106)" width="16" height="24"/>
			<rect x="152.004" y="152" width="16" height="24"/>
			<rect x="201.748" y="133.75" transform="matrix(0.707 0.7072 -0.7072 0.707 162.8734 -109.6323)" width="24" height="16"/>
			<rect x="224.004" y="80" width="24" height="16"/>
			<rect x="205.749" y="22.265" transform="matrix(0.7071 0.7071 -0.7071 0.7071 86.8345 -141.1073)" width="16" height="24"/>
		</g>
	</g>
</g>
<g>
</g>
<g>
</g>
<g>
</g>
<g>
</g>
<g>
</g>
<g>
</g>
<g>
</g>
<g>
</g>
<g>
</g>
<g>
</g>
<g>
</g>
<g>
</g>
<g>
</g>
<g>
</g>
<g>
</g>
</svg>
