<?xml version="1.0" encoding="iso-8859-1"?>
<!-- Generator: Adobe Illustrator 19.0.0, SVG Export Plug-In . SVG Version: 6.00 Build 0)  -->
<svg version="1.1" id="Layer_1" xmlns="http://www.w3.org/2000/svg" xmlns:xlink="http://www.w3.org/1999/xlink" x="0px" y="0px"
	 viewBox="0 0 496.008 496.008" style="enable-background:new 0 0 496.008 496.008;" xml:space="preserve">
<g>
	<g>
		<g>
			<path d="M376.004,304.464V288h-16v25.56l3.992,2.312C391.14,331.6,408.004,360.768,408.004,392
				c0,24.144-9.584,46.664-26.984,63.408c-17.392,16.744-40.264,25.512-64.472,24.528c-45.56-1.736-83.48-40.264-84.52-85.864
				c-0.736-32.088,16.12-62.048,43.984-78.192l3.992-2.32V192h-16v112.456c-30.536,19.552-48.808,53.608-47.968,89.976
				c1.232,53.904,46.048,99.432,99.904,101.496c1.368,0.048,2.736,0.08,4.104,0.08c27.048,0,52.504-10.24,72.072-29.072
				c20.56-19.792,31.888-46.408,31.888-74.936C424.004,356.64,405.724,323.512,376.004,304.464z"/>
			<path d="M320.004,16c22.056,0,40,17.944,40,40v56h16V56c0-30.88-25.12-56-56-56s-56,25.12-56,56h16
				C280.004,33.944,297.948,16,320.004,16z"/>
			<path d="M296.004,96v228.176c-28.552,10.064-48,37.12-48,67.824c0,39.696,32.304,72,72,72s72-32.304,72-72
				c0-30.704-19.448-57.76-48-67.824V96H296.004z M376.004,392c0,30.88-25.12,56-56,56s-56-25.12-56-56
				c0-25.512,17.272-47.784,42-54.16l6-1.544V112h16v224.296l6,1.544C358.732,344.216,376.004,366.488,376.004,392z"/>
			<rect x="360.004" y="256" width="48" height="16"/>
			<rect x="360.004" y="224" width="48" height="16"/>
			<rect x="360.004" y="192" width="48" height="16"/>
			<rect x="360.004" y="160" width="48" height="16"/>
			<rect x="360.004" y="128" width="48" height="16"/>
			<path d="M280.004,120c0-57.344-46.656-104-104-104s-104,46.656-104,104s46.656,104,104,104S280.004,177.344,280.004,120z
				 M176.004,208c-48.52,0-88-39.48-88-88s39.48-88,88-88s88,39.48,88,88S224.524,208,176.004,208z"/>
			<path d="M144.004,56c-13.232,0-24,10.768-24,24s10.768,24,24,24s24-10.768,24-24S157.236,56,144.004,56z M144.004,88
				c-4.408,0-8-3.592-8-8s3.592-8,8-8s8,3.592,8,8S148.412,88,144.004,88z"/>
			<polygon points="176.004,88 176.004,184 192.004,184 192.004,144 224.004,144 224.004,128 192.004,128 192.004,104 240.004,104 
				240.004,88 			"/>
		</g>
	</g>
</g>
<g>
</g>
<g>
</g>
<g>
</g>
<g>
</g>
<g>
</g>
<g>
</g>
<g>
</g>
<g>
</g>
<g>
</g>
<g>
</g>
<g>
</g>
<g>
</g>
<g>
</g>
<g>
</g>
<g>
</g>
</svg>
