<?xml version="1.0" encoding="iso-8859-1"?>
<!-- Generator: Adobe Illustrator 19.0.0, SVG Export Plug-In . SVG Version: 6.00 Build 0)  -->
<svg version="1.1" id="Layer_1" xmlns="http://www.w3.org/2000/svg" xmlns:xlink="http://www.w3.org/1999/xlink" x="0px" y="0px"
	 viewBox="0 0 502.152 502.152" style="enable-background:new 0 0 502.152 502.152;" xml:space="preserve">
<g>
	<g>
		<g>
			<path d="M283.076,36.352v-32.2h-16V36.52c-41.848,1.672-81.888,16.32-114.832,42.016c-2.624-8.592-6.992-16.624-13-23.488
				L91.076,0L42.908,55.04C32.7,66.72,27.076,81.68,27.076,97.192v2.96c0,34.44,27.368,62.544,61.496,63.872
				c-8.936,23-13.496,47.192-13.496,72.128h16c0-22.056,17.944-40,40-40c22.056,0,40,17.944,40,40h16c0-22.056,17.944-40,40-40
				c22.056,0,40,17.944,40,40v204c0,33.088,26.912,62,60,62s60-26,60-58h-16c0,24-19.744,42-44,42c-24.256,0-44-21.736-44-46v-204
				c0-22.056,17.944-40,40-40c22.056,0,40,17.944,40,40h16c0-22.056,17.944-40,40-40c22.056,0,40,17.944,40,40h16
				C475.076,128.552,389.66,40.576,283.076,36.352z M43.076,100.152v-2.96c0-11.632,4.216-22.856,11.88-31.608l36.12-41.28
				l36.12,41.288c7.664,8.744,11.88,19.968,11.88,31.6v2.96c0,26.472-21.528,48-48,48S43.076,126.624,43.076,100.152z
				 M172.964,199.184c-10.264-11.616-25.2-19.032-41.888-19.032c-13.112,0-25.168,4.52-34.728,12.096
				c2.528-10.28,6.104-20.312,10.424-30.12c27.712-7.032,48.304-32.112,48.304-61.976v-2.96c0-0.104-0.016-0.208-0.016-0.312
				c26.976-23.264,59.856-37.976,94.808-42.808C207.532,91.416,180.084,143.352,172.964,199.184z M323.076,180.152
				c-20.344,0-38.192,10.904-48,27.176c-9.808-16.272-27.656-27.176-48-27.176c-14.32,0-27.336,5.48-37.248,14.352
				c8.768-54.952,38.616-105.384,83.656-139.152l1.592-1.2l1.6,1.2c45.032,33.768,74.88,84.2,83.648,139.16
				C350.412,185.632,337.396,180.152,323.076,180.152z M419.076,180.152c-16.688,0-31.624,7.416-41.888,19.04
				c-7.12-55.848-34.584-107.808-76.944-145.152c74.976,10.32,135.744,65.84,153.536,138.2
				C444.236,184.672,432.172,180.152,419.076,180.152z"/>
			<rect x="107.076" y="84.152" width="16" height="16"/>
			<rect x="91.076" y="116.152" width="16" height="16"/>
		</g>
	</g>
</g>
<g>
</g>
<g>
</g>
<g>
</g>
<g>
</g>
<g>
</g>
<g>
</g>
<g>
</g>
<g>
</g>
<g>
</g>
<g>
</g>
<g>
</g>
<g>
</g>
<g>
</g>
<g>
</g>
<g>
</g>
</svg>
