<?xml version="1.0" encoding="iso-8859-1"?>
<!-- Generator: Adobe Illustrator 19.0.0, SVG Export Plug-In . SVG Version: 6.00 Build 0)  -->
<svg version="1.1" id="Layer_1" xmlns="http://www.w3.org/2000/svg" xmlns:xlink="http://www.w3.org/1999/xlink" x="0px" y="0px"
	 viewBox="0 0 498 498" style="enable-background:new 0 0 498 498;" xml:space="preserve">
<g>
	<g>
		<g>
			<path d="M153,80c0-26.472-21.528-48-48-48S57,53.528,57,80s21.528,48,48,48S153,106.472,153,80z M73,80c0-17.648,14.352-32,32-32
				s32,14.352,32,32s-14.352,32-32,32S73,97.648,73,80z"/>
			<rect x="97" width="16" height="16"/>
			<rect x="46.09" y="21.088" transform="matrix(0.7071 0.7071 -0.7071 0.7071 36.4109 -29.7276)" width="16" height="16"/>
			<rect x="25" y="72" width="16" height="16"/>
			<rect x="46.09" y="122.912" transform="matrix(-0.7071 -0.7071 0.7071 -0.7071 -0.2319 261.7274)" width="16" height="16"/>
			<rect x="97" y="144" width="16" height="16"/>
			<rect x="147.913" y="122.912" transform="matrix(-0.7071 -0.7071 0.7071 -0.7071 173.5919 333.7281)" width="16" height="16"/>
			<rect x="169" y="72" width="16" height="16"/>
			<rect x="147.914" y="21.088" transform="matrix(0.7071 0.7071 -0.7071 0.7071 66.2345 -101.7278)" width="16" height="16"/>
			<path d="M281,32.2V0h-16v32.192c-23.056,0.912-45.56,5.72-67,14.4l6,14.832c14.136-5.72,28.808-9.424,43.776-11.488
				C205.44,87.28,178,139.216,170.888,195.04C160.624,183.416,145.688,176,129,176c-13.096,0-25.16,4.52-34.704,12.08
				c0.8-3.272,1.696-6.52,2.672-9.752l-15.304-4.656C75.92,192.56,73,212.184,73,232h16c0-22.056,17.944-40,40-40
				c22.056,0,40,17.944,40,40h16c0-22.056,17.944-40,40-40c22.056,0,40,17.944,40,40v204c0,33.088,26.912,62,60,62s60-26,60-58h-16
				c0,24-19.736,42-44,42c-24.264,0-44-21.744-44-46V232c0-22.056,17.944-40,40-40c22.056,0,40,17.944,40,40h16
				c0-22.056,17.944-40,40-40c22.056,0,40,17.944,40,40h16C473,124.4,387.584,36.424,281,32.2z M321,176
				c-20.344,0-38.192,10.904-48,27.176C263.192,186.904,245.344,176,225,176c-14.32,0-27.336,5.48-37.248,14.36
				C196.52,135.4,226.368,84.968,271.4,51.2L273,50l1.6,1.2c45.032,33.768,74.88,84.208,83.648,139.16
				C348.336,181.48,335.32,176,321,176z M417,176c-16.688,0-31.624,7.416-41.888,19.04c-7.12-55.856-34.576-107.808-76.944-145.16
				c74.984,10.32,135.744,65.84,153.536,138.2C442.16,180.52,430.096,176,417,176z"/>
		</g>
	</g>
</g>
<g>
</g>
<g>
</g>
<g>
</g>
<g>
</g>
<g>
</g>
<g>
</g>
<g>
</g>
<g>
</g>
<g>
</g>
<g>
</g>
<g>
</g>
<g>
</g>
<g>
</g>
<g>
</g>
<g>
</g>
</svg>
