<?xml version="1.0" encoding="iso-8859-1"?>
<!-- Generator: Adobe Illustrator 19.0.0, SVG Export Plug-In . SVG Version: 6.00 Build 0)  -->
<svg version="1.1" id="Layer_1" xmlns="http://www.w3.org/2000/svg" xmlns:xlink="http://www.w3.org/1999/xlink" x="0px" y="0px"
	 viewBox="0 0 498 498" style="enable-background:new 0 0 498 498;" xml:space="preserve">
<g>
	<g>
		<g>
			<polygon points="75.928,168.208 84.456,153.448 90.616,165.904 104.96,158.808 94.072,136.792 113,104 131.928,136.792 
				121.04,158.808 135.384,165.904 141.544,153.448 150.072,168.208 163.928,160.208 155.408,145.448 169.272,146.336 
				170.304,130.368 145.784,128.784 126.856,96 164.72,96 178.344,116.44 191.656,107.56 183.944,96 201,96 201,80 183.944,80 
				191.656,68.44 178.344,59.56 164.72,80 126.856,80 145.784,47.216 170.304,45.632 169.272,29.664 155.408,30.552 163.928,15.792 
				150.072,7.792 141.544,22.552 135.384,10.096 121.04,17.192 131.928,39.208 113,72 94.072,39.208 104.96,17.192 90.616,10.096 
				84.456,22.552 75.928,7.792 62.072,15.792 70.592,30.552 56.728,29.664 55.696,45.632 80.216,47.216 99.144,80 61.28,80 
				47.656,59.56 34.344,68.44 42.056,80 25,80 25,96 42.056,96 34.344,107.56 47.656,116.44 61.28,96 99.144,96 80.216,128.784 
				55.696,130.368 56.728,146.336 70.592,145.448 62.072,160.208 			"/>
			<path d="M281,32.2V0h-16v32.336c-20.032,0.792-39.744,4.4-58.664,11.088l5.336,15.088c11.768-4.16,23.88-6.944,36.168-8.632
				c-42.368,37.352-69.832,89.304-76.952,145.16C160.624,183.416,145.688,176,129,176c-30.88,0-56,25.12-56,56h16
				c0-22.056,17.944-40,40-40c22.056,0,40,17.944,40,40h16c0-22.056,17.944-40,40-40c22.056,0,40,17.944,40,40v204
				c0,33.088,26.912,62,60,62s60-26,60-58h-16c0,24-19.736,42-44,42c-24.264,0-44-21.744-44-46V232c0-22.056,17.944-40,40-40
				c22.056,0,40,17.944,40,40h16c0-22.056,17.944-40,40-40c22.056,0,40,17.944,40,40h16C473,124.4,387.584,36.424,281,32.2z
				 M321,176c-20.344,0-38.192,10.904-48,27.176C263.192,186.904,245.344,176,225,176c-14.32,0-27.336,5.48-37.248,14.36
				C196.52,135.4,226.368,84.968,271.4,51.2L273,50l1.6,1.2c45.032,33.768,74.88,84.208,83.648,139.16
				C348.336,181.48,335.32,176,321,176z M417,176c-16.688,0-31.624,7.416-41.888,19.04c-7.12-55.856-34.576-107.808-76.944-145.16
				c74.984,10.32,135.744,65.84,153.536,138.2C442.16,180.52,430.096,176,417,176z"/>
		</g>
	</g>
</g>
<g>
</g>
<g>
</g>
<g>
</g>
<g>
</g>
<g>
</g>
<g>
</g>
<g>
</g>
<g>
</g>
<g>
</g>
<g>
</g>
<g>
</g>
<g>
</g>
<g>
</g>
<g>
</g>
<g>
</g>
</svg>
