<?xml version="1.0" encoding="iso-8859-1"?>
<!-- Generator: Adobe Illustrator 19.0.0, SVG Export Plug-In . SVG Version: 6.00 Build 0)  -->
<svg version="1.1" id="Layer_1" xmlns="http://www.w3.org/2000/svg" xmlns:xlink="http://www.w3.org/1999/xlink" x="0px" y="0px"
	 viewBox="0 0 498 498" style="enable-background:new 0 0 498 498;" xml:space="preserve">
<g>
	<g>
		<path d="M257,32.2V0h-16v32.2C134.416,36.424,49,124.4,49,232h16c0-22.056,17.944-40,40-40c22.056,0,40,17.944,40,40h16
			c0-22.056,17.944-40,40-40c22.056,0,40,17.944,40,40v204c0,33.088,26.912,62,60,62s60-26,60-58h-16c0,24-19.736,42-44,42
			c-24.264,0-44-21.736-44-46V232c0-22.056,17.944-40,40-40c22.056,0,40,17.944,40,40h16c0-22.056,17.944-40,40-40
			c22.056,0,40,17.944,40,40h16C449,124.4,363.584,36.424,257,32.2z M146.888,195.04C136.624,183.416,121.688,176,105,176
			c-13.096,0-25.16,4.52-34.704,12.08c17.792-72.36,78.552-127.872,153.536-138.2C181.464,87.232,154.008,139.184,146.888,195.04z
			 M297,176c-20.344,0-38.192,10.904-48,27.176C239.192,186.904,221.344,176,201,176c-14.32,0-27.336,5.48-37.248,14.36
			C172.52,135.4,202.368,84.968,247.4,51.2L249,50l1.6,1.2c45.032,33.768,74.88,84.208,83.648,139.16
			C324.336,181.48,311.32,176,297,176z M393,176c-16.688,0-31.624,7.416-41.888,19.04c-7.12-55.856-34.576-107.808-76.944-145.16
			c74.984,10.32,135.744,65.84,153.536,138.2C418.16,180.52,406.096,176,393,176z"/>
	</g>
</g>
<g>
</g>
<g>
</g>
<g>
</g>
<g>
</g>
<g>
</g>
<g>
</g>
<g>
</g>
<g>
</g>
<g>
</g>
<g>
</g>
<g>
</g>
<g>
</g>
<g>
</g>
<g>
</g>
<g>
</g>
</svg>
