<?xml version="1.0" encoding="iso-8859-1"?>
<!-- Generator: Adobe Illustrator 19.0.0, SVG Export Plug-In . SVG Version: 6.00 Build 0)  -->
<svg version="1.1" id="Layer_1" xmlns="http://www.w3.org/2000/svg" xmlns:xlink="http://www.w3.org/1999/xlink" x="0px" y="0px"
	 viewBox="0 0 496 496" style="enable-background:new 0 0 496 496;" xml:space="preserve">
<g>
	<g>
		<path d="M496,212c0-47.568-35.536-88.072-82.032-94.904C402.968,52.184,346.464,4,280,4c-60.16,0-112.592,39.232-129.944,96.272
			C148.008,100.096,145.984,100,144,100c-24.032,0-46.552,12.176-59.856,32.088C37.4,134.112,0,172.776,0,220
			c0,45.968,35.44,83.752,80.424,87.616C80.288,310.416,80,313.168,80,316v16h16c0-17.648,14.352-32,32-32s32,14.352,32,32h16
			c0-17.648,14.352-32,32-32s32,14.352,32,32v128c0,17.648,14.352,32,32,32s32-14.352,32-32v-16h-16v16c0,8.824-7.176,16-16,16
			c-8.824,0-16-7.176-16-16V332c0-17.648,14.352-32,32-32s32,14.352,32,32h16c0-17.648,14.352-32,32-32s32,14.352,32,32h16v-16
			c0-3.16-0.304-6.248-0.472-9.376C461.088,299.168,496,259.64,496,212z M160.464,296.672C151.912,288.808,140.512,284,128,284
			c-11.6,0-22.248,4.136-30.552,11.008c9.096-65.616,60.28-117.872,125.296-128.8C186.24,200.016,163.792,246.696,160.464,296.672z
			 M288,284c-16.68,0-31.392,8.544-40,21.496C239.392,292.544,224.68,284,208,284c-12.016,0-22.968,4.488-31.4,11.808
			c3.984-51.384,29.952-98.8,71.4-129.832c41.448,31.032,67.416,78.448,71.4,129.832C310.976,288.488,300.016,284,288,284z M368,284
			c-12.512,0-23.912,4.808-32.464,12.672c-3.328-49.976-25.776-96.656-62.28-130.464c65.024,10.936,116.2,63.192,125.296,128.8
			C390.248,288.136,379.6,284,368,284z M413.888,290.712C402.016,212.656,336.392,152.216,256,148.408V116h-16v32.408
			c-80.728,3.832-146.576,64.76-158.04,143.288C45.08,288.608,16,257.664,16,220c0-39.704,32.296-72,71.688-72.008l5.528,0.04
			l2.312-3.992C105.544,126.744,124.12,116,144,116c3.352,0,6.856,0.344,10.424,1.008l7.424,1.4l1.824-7.336
			C176.96,57.456,224.808,20,280,20c60.512,0,111.672,45.28,119.008,105.32l0.792,6.496l6.52,0.512
			C447.632,135.56,480,170.56,480,212C480,251.368,451.392,284.104,413.888,290.712z"/>
	</g>
</g>
<g>
</g>
<g>
</g>
<g>
</g>
<g>
</g>
<g>
</g>
<g>
</g>
<g>
</g>
<g>
</g>
<g>
</g>
<g>
</g>
<g>
</g>
<g>
</g>
<g>
</g>
<g>
</g>
<g>
</g>
</svg>
