<?xml version="1.0" encoding="iso-8859-1"?>
<!-- Generator: Adobe Illustrator 19.0.0, SVG Export Plug-In . SVG Version: 6.00 Build 0)  -->
<svg version="1.1" id="Layer_1" xmlns="http://www.w3.org/2000/svg" xmlns:xlink="http://www.w3.org/1999/xlink" x="0px" y="0px"
	 viewBox="0 0 496 496" style="enable-background:new 0 0 496 496;" xml:space="preserve">
<g>
	<g>
		<g>
			<path d="M413.976,153.096C402.968,88.184,346.456,40,280,40c-60.16,0-112.6,39.232-129.952,96.272
				c-26.728-2.32-51.504,10.264-65.904,31.816C37.4,170.112,0,208.768,0,256c0,48.52,39.48,88,88,88h35.464l-20.288,33.824
				c-4.696,7.832-7.176,16.8-7.176,25.92v1.864C96,433.4,118.608,456,146.392,456h203.216C377.392,456,400,433.4,400,405.608v-1.864
				c0-9.12-2.48-18.088-7.176-25.92L372.536,344H400c52.936,0,96-43.064,96-96C496,200.432,460.464,159.928,413.976,153.096z
				 M88,328c-39.696,0-72-32.296-72-72c0-39.704,32.304-72,71.688-72.008l5.536,0.04l2.312-3.992
				C105.544,162.744,124.112,152,144,152c3.352,0,6.856,0.344,10.416,1.008l7.424,1.4l1.824-7.336C176.96,93.456,224.8,56,280,56
				c60.504,0,111.672,45.28,119.008,105.32l0.56,4.552C399.84,169.216,400,172.584,400,176c0,44.664-25.144,85.736-64.472,106.328
				l-44.32-73.864C282.152,193.376,265.592,184,248,184c-17.592,0-34.152,9.376-43.208,24.464L133.064,328H88z M379.104,386.048
				c3.2,5.352,4.896,11.464,4.896,17.696v1.864c0,18.96-15.424,34.392-34.392,34.392H146.392C127.424,440,112,424.568,112,405.608
				v-1.864c0-6.224,1.696-12.344,4.896-17.696l101.608-169.352C224.688,206.4,235.992,200,248,200s23.312,6.4,29.496,16.696
				L379.104,386.048z M400,328h-37.064l-19.152-31.92C387.872,272.592,416,226.304,416,176c0-2.128-0.176-4.2-0.272-6.296
				C452.432,177.088,480,209.768,480,248C480,292.112,444.112,328,400,328z"/>
			<path d="M224,424h48v-48h-48V424z M240,392h16v16h-16V392z"/>
			<path d="M216.032,264.728L224.696,360h46.608L280,264v-32h-64L216.032,264.728z M232,248h32.008l0.016,15.272L256.696,344
				h-17.392L232,264V248z"/>
		</g>
	</g>
</g>
<g>
</g>
<g>
</g>
<g>
</g>
<g>
</g>
<g>
</g>
<g>
</g>
<g>
</g>
<g>
</g>
<g>
</g>
<g>
</g>
<g>
</g>
<g>
</g>
<g>
</g>
<g>
</g>
<g>
</g>
</svg>
