<?xml version="1.0" encoding="iso-8859-1"?>
<!-- Generator: Adobe Illustrator 19.0.0, SVG Export Plug-In . SVG Version: 6.00 Build 0)  -->
<svg version="1.1" id="Layer_1" xmlns="http://www.w3.org/2000/svg" xmlns:xlink="http://www.w3.org/1999/xlink" x="0px" y="0px"
	 viewBox="0 0 496 496" style="enable-background:new 0 0 496 496;" xml:space="preserve">
<g>
	<g>
		<path d="M478.096,138.816l-2.4-2.816H376c-39.576,0-62.424-7.032-88.864-15.168c-35.792-11.016-80.336-24.696-181.8-24.824
			L64,82.232v-10.44C73.656,64.488,80,53.016,80,40C80,17.944,62.056,0,40,0C17.944,0,0,17.944,0,40
			c0,13.016,6.344,24.488,16,31.792V496h16V79.192C34.584,79.72,37.264,80,40,80s5.416-0.28,8-0.808V496h16V317.76l41.32-13.776
			c101.472-0.12,146.016-13.8,181.808-24.816C313.576,271.032,336.424,264,376,264h98.992l2.256-1.96
			c1.92-1.672,18.752-17.52,18.752-59.592C496,160.352,478.832,139.672,478.096,138.816z M40,64c-13.232,0-24-10.768-24-24
			s10.768-24,24-24s24,10.768,24,24S53.232,64,40,64z M90.912,291.936L64,300.904v-201.8l26.912,8.968
			C81.712,128.72,80,171.432,80,200S81.712,271.288,90.912,291.936z M104,282.168c-3.72-12.32-8-40.024-8-82.168
			s4.28-69.848,8-82.176c3.72,12.328,8,40.024,8,82.176C112,242.152,107.72,269.848,104,282.168z M179.688,284.904
			c-17.4,1.6-37.456,2.656-60.944,2.976C126.512,266.064,128,226.784,128,200s-1.488-66.064-9.256-87.88
			c23.488,0.32,43.544,1.376,60.944,2.976C184.112,128.024,192,157.056,192,200C192,242.952,184.112,271.984,179.688,284.904z
			 M468.408,248H376c-41.984,0-65.888,7.352-93.576,15.872c-22.488,6.92-46.88,14.392-85.304,19.16C201.952,266.8,208,238.8,208,200
			s-6.048-66.8-10.88-83.032c38.424,4.768,62.816,12.24,85.304,19.16C310.112,144.648,334.016,152,376,152h91.824
			c3.88,6.272,12.176,22.912,12.176,50.448C480,229.584,471.96,243.272,468.408,248z"/>
	</g>
</g>
<g>
</g>
<g>
</g>
<g>
</g>
<g>
</g>
<g>
</g>
<g>
</g>
<g>
</g>
<g>
</g>
<g>
</g>
<g>
</g>
<g>
</g>
<g>
</g>
<g>
</g>
<g>
</g>
<g>
</g>
</svg>
