<?xml version="1.0" encoding="iso-8859-1"?>
<!-- Generator: Adobe Illustrator 19.0.0, SVG Export Plug-In . SVG Version: 6.00 Build 0)  -->
<svg version="1.1" id="Layer_1" xmlns="http://www.w3.org/2000/svg" xmlns:xlink="http://www.w3.org/1999/xlink" x="0px" y="0px"
	 viewBox="0 0 496 496" style="enable-background:new 0 0 496 496;" xml:space="preserve">
<g>
	<g>
		<g>
			<path d="M413.968,233.096c-10.832-63.912-65.808-111.512-130.944-112.96C265.888,90.344,234.528,72,200,72
				c-40.936,0-77.176,26.096-90.528,64.28c-20.6-2.104-40.2,7.464-51.616,24.064C25.08,163.424,0,190.592,0,224
				c0,20.104,9.424,38.616,25.04,50.616C9.568,290.48,0,312.136,0,336h16c0-39.704,32.296-72,71.688-72.008l5.528,0.04l2.312-3.992
				C105.544,242.744,124.12,232,144,232c3.352,0,6.856,0.344,10.424,1.008l7.424,1.4l1.824-7.336
				C176.96,173.456,224.808,136,280,136c60.512,0,111.672,45.28,119.008,105.32l0.56,4.592C399.84,249.24,400,252.6,400,256
				c0,66.168-53.832,120-120,120H64v16h216c74.992,0,136-61.008,136-136c0-2.128-0.176-4.2-0.272-6.296
				C452.432,257.088,480,289.776,480,328c0,44.112-35.888,80-80,80H32v16h368c52.936,0,96-43.064,96-96
				C496,280.432,460.464,239.928,413.968,233.096z M150.056,216.272C148.008,216.096,145.984,216,144,216
				c-24.032,0-46.552,12.176-59.856,32.088c-17.272,0.744-33.248,6.52-46.552,15.856C24.2,255.096,16,240.24,16,224
				c0-26.144,20.496-47.192,46.648-47.92l4.472-0.128l2.232-3.872C76.504,159.696,89.776,152,104,152
				c3.016,0,6.032,0.368,9.224,1.12l7.56,1.776l1.992-7.504C132.104,112.424,163.848,88,200,88c25.88,0,49.584,12.416,64.496,32.984
				C211,127.08,165.896,164.208,150.056,216.272z"/>
			<rect y="408" width="16" height="16"/>
			<rect x="32" y="376" width="16" height="16"/>
			<rect x="96" y="344" width="184" height="16"/>
			<rect x="64" y="344" width="16" height="16"/>
		</g>
	</g>
</g>
<g>
</g>
<g>
</g>
<g>
</g>
<g>
</g>
<g>
</g>
<g>
</g>
<g>
</g>
<g>
</g>
<g>
</g>
<g>
</g>
<g>
</g>
<g>
</g>
<g>
</g>
<g>
</g>
<g>
</g>
</svg>
