<?xml version="1.0" encoding="iso-8859-1"?>
<!-- Generator: Adobe Illustrator 19.0.0, SVG Export Plug-In . SVG Version: 6.00 Build 0)  -->
<svg version="1.1" id="Layer_1" xmlns="http://www.w3.org/2000/svg" xmlns:xlink="http://www.w3.org/1999/xlink" x="0px" y="0px"
	 viewBox="0 0 496 496" style="enable-background:new 0 0 496 496;" xml:space="preserve">
<g>
	<g>
		<g>
			<path d="M438.28,208h33.152l-55-88h31.136L376.992,9.096l-60.728,95.432l-35.272-55.432l-35.272,55.432L184.992,9.096
				L114.424,120h46.568v-16H143.56l41.432-65.096L226.424,104h-31.056l25.432,39.696L210.424,160h20.144l5.496,8.792L186.552,248
				h33.152l-42.712,72.28V288H94.584l33.4-60.112L114,220.112L67.4,304h93.592v152h16V344h16v112h16V344h48v152h16V328h-81.984
				l56.728-96h-32.304l55-88h-30.864l15.272-24h0.728l-0.36-0.568l25.784-40.528l25.792,40.528l-0.36,0.568h0.728l15.272,24h-30.872
				l55,88h-32.304l56.728,96h-81.984v168h16V344h48v112h16V344h16v112h16V304h94.016L438.28,208z M230.264,128.816L224.616,120
				h11.256L230.264,128.816z M384.992,288v32.28L342.28,248h33.152l-49.504-79.208l5.496-8.792h20.144l-10.16-15.968L366.432,104
				h-30.864l41.424-65.096L418.424,104h-30.872l55,88h-32.304l56.728,96H384.992z M326.112,120h11.448l-5.68,9.072L326.112,120z"/>
			<path d="M144.992,40c0-22.056-17.944-40-40-40c-22.056,0-40,17.944-40,40v8h16v-8c0-13.232,10.768-24,24-24s24,10.768,24,24
				s-10.768,24-24,24h-104v16h104C127.048,80,144.992,62.056,144.992,40z"/>
			<path d="M160.992,168c0,13.232-10.768,24-24,24s-24-10.768-24-24v-8h-16v8c0,22.056,17.944,40,40,40c22.056,0,40-17.944,40-40
				c0-22.056-17.944-40-40-40h-104v16h104C150.224,144,160.992,154.768,160.992,168z"/>
			<rect x="16.992" y="96" width="80" height="16"/>
			<rect x="48.992" y="160" width="16" height="16"/>
		</g>
	</g>
</g>
<g>
</g>
<g>
</g>
<g>
</g>
<g>
</g>
<g>
</g>
<g>
</g>
<g>
</g>
<g>
</g>
<g>
</g>
<g>
</g>
<g>
</g>
<g>
</g>
<g>
</g>
<g>
</g>
<g>
</g>
</svg>
