<?xml version="1.0"?>
<svg xmlns="http://www.w3.org/2000/svg" xmlns:xlink="http://www.w3.org/1999/xlink" version="1.1" id="Layer_1" x="0px" y="0px" viewBox="0 0 496 496" style="enable-background:new 0 0 496 496;" xml:space="preserve" width="512px" height="512px" class=""><g><g>
	<g>
		<g>
			<path d="M413.968,233.096c-10.832-63.912-65.808-111.512-130.944-112.96C265.888,90.344,234.528,72,200,72     c-40.936,0-77.176,26.096-90.528,64.28c-20.6-2.104-40.2,7.464-51.616,24.064C25.08,163.424,0,190.592,0,224     c0,20.104,9.424,38.616,25.04,50.616C9.568,290.48,0,312.136,0,336h16c0-39.704,32.296-72,71.688-72.008l5.528,0.04l2.312-3.992     C105.544,242.744,124.12,232,144,232c3.352,0,6.856,0.344,10.424,1.008l7.424,1.4l1.824-7.336     C176.96,173.456,224.808,136,280,136c60.512,0,111.672,45.28,119.008,105.32l0.792,6.496l6.52,0.512     C447.632,251.56,480,286.56,480,328c0,44.112-35.888,80-80,80H32v16h368c52.936,0,96-43.064,96-96     C496,280.432,460.464,239.928,413.968,233.096z M150.056,216.272C148.008,216.096,145.984,216,144,216     c-24.032,0-46.552,12.176-59.856,32.088c-17.272,0.744-33.248,6.52-46.552,15.856C24.2,255.096,16,240.24,16,224     c0-26.144,20.496-47.192,46.648-47.92l4.472-0.128l2.232-3.872C76.504,159.696,89.776,152,104,152     c3.016,0,6.032,0.368,9.224,1.12l7.56,1.776l1.992-7.504C132.104,112.424,163.848,88,200,88c25.88,0,49.584,12.416,64.496,32.984     C211,127.08,165.896,164.208,150.056,216.272z" data-original="#000000" class="active-path" data-old_color="#FCF7F7" fill="#FCF9F9"/>
			<rect y="408" width="16" height="16" data-original="#000000" class="active-path" data-old_color="#FCF7F7" fill="#FCF9F9"/>
			<rect x="32" y="376" width="16" height="16" data-original="#000000" class="active-path" data-old_color="#FCF7F7" fill="#FCF9F9"/>
			<path d="M280,344H96v16h184c30.872,0,56-25.128,56-56s-25.128-56-56-56s-56,25.128-56,56v24h16v-24c0-22.056,17.944-40,40-40     c22.056,0,40,17.944,40,40C320,326.056,302.056,344,280,344z" data-original="#000000" class="active-path" data-old_color="#FCF7F7" fill="#FCF9F9"/>
			<path d="M64,392h336c30.872,0,56-25.128,56-56s-25.128-56-56-56s-56,25.128-56,56v24h16v-24c0-22.056,17.944-40,40-40     c22.056,0,40,17.944,40,40c0,22.056-17.944,40-40,40H64V392z" data-original="#000000" class="active-path" data-old_color="#FCF7F7" fill="#FCF9F9"/>
			<rect x="64" y="344" width="16" height="16" data-original="#000000" class="active-path" data-old_color="#FCF7F7" fill="#FCF9F9"/>
		</g>
	</g>
</g></g> </svg>
